<svg width="185" height="68" viewBox="0 0 185 68" fill="none" xmlns="http://www.w3.org/2000/svg">
<g clip-path="url(#clip0_4734_6134)">
<path fill-rule="evenodd" clip-rule="evenodd" d="M172.11 37.8747H162.973C162.532 37.8747 162.154 38.2316 162.154 38.6936C162.154 39.1343 162.532 39.5123 162.973 39.5123H166.796V48.7671C166.796 49.2288 167.153 49.5893 167.615 49.5893C168.077 49.5893 168.434 49.2288 168.434 48.7671V39.5123H172.11C172.572 39.5123 172.95 39.1343 172.95 38.6936C172.95 38.2316 172.572 37.8747 172.11 37.8747ZM160.537 47.9728H154.257C153.164 47.9728 152.282 47.1119 152.282 46.0412V41.4437C152.282 40.3941 153.164 39.5123 154.257 39.5123H160.537C160.999 39.5123 161.356 39.1343 161.356 38.6936C161.356 38.2316 160.999 37.8747 160.537 37.8747H154.257C152.261 37.8747 150.644 39.4703 150.644 41.4228V46.0203C150.644 47.9937 152.261 49.5893 154.257 49.5893H160.537C160.999 49.5893 161.356 49.2112 161.356 48.7706C161.356 48.3086 160.999 47.9517 160.537 47.9517V47.9728ZM139.575 41.4228C139.575 40.373 140.478 39.5123 141.57 39.5123H147.851C148.313 39.5123 148.67 39.1343 148.67 38.6936C148.67 38.2316 148.313 37.8747 147.851 37.8747H141.57C139.575 37.8747 137.958 39.4703 137.958 41.4228V46.0203C137.958 47.9937 139.575 49.5893 141.57 49.5893H147.851C148.313 49.5893 148.67 49.2112 148.67 48.7706C148.67 48.3086 148.313 47.9517 147.851 47.9517H141.57C140.478 47.9517 139.575 47.091 139.575 46.0203V41.4228ZM136.299 47.9517H131.468V38.7145C131.468 38.2527 131.09 37.8959 130.628 37.8959C130.187 37.8959 129.809 38.2527 129.809 38.7145V49.5893H136.299C136.761 49.5893 137.118 49.2324 137.118 48.7704C137.118 48.3086 136.761 47.9517 136.299 47.9517ZM127.414 47.9517H122.583V38.7145C122.583 38.2527 122.205 37.8959 121.743 37.8959C121.302 37.8959 120.924 38.2527 120.924 38.7145V49.5893H127.414C127.876 49.5893 128.233 49.2324 128.233 48.7704C128.233 48.3086 127.876 47.9517 127.414 47.9517ZM109.624 41.4228C109.624 40.373 110.527 39.5123 111.619 39.5123H117.9C118.362 39.5123 118.719 39.1343 118.719 38.6936C118.719 38.2316 118.362 37.8747 117.9 37.8747H111.619C109.624 37.8747 108.007 39.4703 108.007 41.4228V46.0203C108.007 47.9937 109.624 49.5893 111.619 49.5893H117.9C118.362 49.5893 118.719 49.2112 118.719 48.7706C118.719 48.3086 118.362 47.9517 117.9 47.9517H111.619C110.527 47.9517 109.624 47.091 109.624 46.0203V41.4228ZM106.284 37.8747H97.148C96.7069 37.8747 96.3288 38.2316 96.3288 38.6936C96.3288 39.1343 96.7069 39.5123 97.148 39.5123H100.971V48.7671C100.971 49.2288 101.328 49.5893 101.79 49.5893C102.252 49.5893 102.609 49.2288 102.609 48.7671V39.5123H106.284C106.747 39.5123 107.125 39.1343 107.125 38.6936C107.125 38.2316 106.747 37.8747 106.284 37.8747ZM93.8925 37.7907C93.4514 37.7907 93.0732 38.1476 93.0732 38.6096V46.755L86.2682 38.2736C86.016 37.9587 85.659 37.7907 85.281 37.7907C84.5878 37.7907 84.0206 38.3785 84.0206 39.0503V48.7915C84.0206 49.2324 84.3777 49.6101 84.8188 49.6312C85.281 49.6312 85.659 49.2532 85.659 48.7915V40.205L92.9473 49.2532C93.1363 49.5052 93.4514 49.6312 93.7664 49.6312C94.3125 49.5892 94.7327 49.1272 94.7327 48.6026V38.6305C94.7327 38.1687 94.3545 37.7907 93.8925 37.7907ZM70.429 46.2477C70.429 47.1955 69.5468 47.9728 68.4547 47.9728H63.0568V39.5332H68.4547C69.547 39.5332 70.429 40.3103 70.429 41.2372V46.2477ZM68.4547 37.8747H61.4185V49.5893H68.4547C70.4711 49.5893 72.0674 48.0986 72.0674 46.2477V41.2372C72.0674 39.3863 70.4708 37.8747 68.4547 37.8747ZM58.0371 37.7907C57.5749 37.7907 57.2178 38.1479 57.2178 38.6096V46.3981C57.2178 47.2377 56.5246 47.9308 55.6846 47.9308H50.0557C49.2157 47.9308 48.5223 47.2379 48.5223 46.3981V38.6096C48.5223 38.1476 48.1443 37.7907 47.7032 37.7907C47.2412 37.7907 46.8842 38.1479 46.8842 38.6096V46.3981C46.8842 48.1404 48.2913 49.5472 50.0346 49.5472H55.6635C57.4068 49.5472 58.8141 48.1406 58.8141 46.3981V38.6096C58.8141 38.1476 58.4571 37.7907 57.9951 37.7907H58.0371ZM42.8725 46.4157C42.8725 47.2586 42.179 47.9517 41.3391 47.9517H35.7101C34.8702 47.9517 34.177 47.259 34.177 46.4157V41.0274C34.177 40.1841 34.87 39.4912 35.7101 39.4912H41.3391C42.1792 39.4912 42.8725 40.1843 42.8725 41.0274V46.4157ZM41.3602 37.8538H35.731C33.9671 37.8538 32.5386 39.2814 32.5386 41.0272V46.4157C32.5386 48.1615 33.9669 49.5893 35.731 49.5893H41.3602C43.1035 49.5893 44.5317 48.1617 44.5317 46.4157V41.0272C44.5317 39.2812 43.1032 37.8538 41.3602 37.8538ZM30.8583 47.9517H26.0275V38.7145C26.0275 38.2525 25.6495 37.8959 25.1873 37.8959C24.7462 37.8959 24.3683 38.2527 24.3683 38.7145V49.5893H30.8583C31.3205 49.5893 31.6775 49.2324 31.6775 48.7704C31.6775 48.3086 31.3203 47.9517 30.8583 47.9517ZM80.5132 37.8959C80.0721 37.8959 79.6939 38.2525 79.6939 38.7145V48.7704C79.6939 49.2324 80.0721 49.5893 80.5132 49.5893C80.9752 49.5893 81.3531 49.2324 81.3531 48.7704V38.7145C81.3531 38.2525 80.9752 37.8959 80.5132 37.8959ZM21.6796 47.9728H15.3997C14.3077 47.9728 13.4252 47.1119 13.4252 46.0412V41.4437C13.4252 40.3941 14.3074 39.5123 15.3997 39.5123H21.6796C22.1419 39.5123 22.4989 39.1343 22.4989 38.6936C22.4989 38.2316 22.1416 37.8747 21.6796 37.8747H15.3997C13.4045 37.8747 11.7871 39.4705 11.7871 41.4228V46.0203C11.7871 47.9935 13.4043 49.5893 15.3997 49.5893H21.6796C22.1419 49.5893 22.4989 49.2112 22.4989 48.7706C22.4989 48.3086 22.1419 47.9517 21.6796 47.9517V47.9728Z" fill="white"/>
<path d="M39.6824 42.5482H37.3691V44.8738H39.6824V42.5482Z" fill="white"/>
<path fill-rule="evenodd" clip-rule="evenodd" d="M112.425 44.5304C111.972 44.5304 111.605 44.1637 111.605 43.7114C111.605 43.2588 111.972 42.8921 112.425 42.8921H116.871C117.333 42.8921 117.691 43.2494 117.691 43.7114C117.691 44.1525 117.334 44.5304 116.871 44.5304H112.425ZM142.376 44.5304C141.923 44.5304 141.557 44.1637 141.557 43.7114C141.557 43.2588 141.923 42.8921 142.376 42.8921H146.823C147.284 42.8921 147.642 43.2494 147.642 43.7114C147.642 44.1525 147.285 44.5304 146.823 44.5304H142.376Z" fill="white"/>
<path d="M21.1724 58.9104H20.5547V64.8621H21.1724V58.9104Z" fill="white"/>
<path d="M26.989 59.5107H24.8526V64.8621H24.2348V59.5107H22.0898V58.9104H26.989V59.5107Z" fill="white"/>
<path d="M35.7234 59.5107H33.587V64.8621H32.9692V59.5107H30.8242V58.9104H35.7234V59.5107Z" fill="white"/>
<path d="M38.6736 61.8689C38.6507 61.7202 38.6006 61.5901 38.5236 61.4788C38.4464 61.3673 38.3346 61.28 38.189 61.2171C38.0431 61.1545 37.8471 61.1228 37.6011 61.1228H37.2837C36.8547 61.1228 36.533 61.233 36.3183 61.4529C36.104 61.6732 35.9967 61.9806 35.9967 62.3751V64.8619H35.3789V60.6256H35.9881V61.1402C36.0281 61.083 36.0809 61.0227 36.1469 60.9598C36.2125 60.897 36.2954 60.8413 36.3957 60.7925C36.4956 60.7441 36.6188 60.7041 36.7647 60.6727C36.9105 60.6412 37.0863 60.6256 37.2922 60.6256H37.6011C37.9844 60.6256 38.2904 60.6755 38.5192 60.7754C38.748 60.8756 38.9224 61.0071 39.0426 61.1701C39.1627 61.3328 39.2399 61.5173 39.2742 61.7231C39.3085 61.9289 39.3257 62.1378 39.3257 62.3494H38.7079C38.7079 62.1776 38.6965 62.0178 38.6736 61.8689Z" fill="white"/>
<path d="M40.5496 64.1543C40.6838 64.2774 40.9227 64.3388 41.2659 64.3388H41.9266C42.2584 64.3388 42.4916 64.273 42.626 64.1413C42.7602 64.01 42.8275 63.8187 42.8275 63.5669C42.8275 63.4469 42.8132 63.3382 42.7846 63.2411C42.756 63.1439 42.7061 63.0623 42.6346 62.9965C42.5628 62.931 42.4643 62.8809 42.3384 62.8466C42.2126 62.812 42.0524 62.7949 41.858 62.7949H41.2574C40.9199 62.7949 40.6838 62.8567 40.5496 62.9794C40.4152 63.1025 40.3479 63.2982 40.3479 63.5669C40.3479 63.8357 40.4152 64.0314 40.5496 64.1543ZM41.755 62.2718C41.9266 62.2718 42.0696 62.2806 42.184 62.2977C42.2984 62.3149 42.397 62.3406 42.4801 62.3749C42.5628 62.409 42.6315 62.4477 42.686 62.4908C42.7404 62.5334 42.7903 62.5807 42.8361 62.6322V61.8346C42.8361 61.5773 42.7703 61.3972 42.6387 61.2943C42.5072 61.1912 42.3098 61.14 42.0467 61.14H41.2059C40.9485 61.14 40.7626 61.18 40.6482 61.26C40.5338 61.3401 40.4766 61.4716 40.4766 61.6545V61.7229H39.8588V61.6545C39.8588 61.3401 39.9605 61.0898 40.1635 60.9042C40.3664 60.7184 40.7025 60.6254 41.1716 60.6254H42.0639C42.5329 60.6254 42.8818 60.7298 43.1106 60.9383C43.3394 61.147 43.4538 61.4172 43.4538 61.7488V64.8619H42.8447V64.5017C42.8275 64.5358 42.8002 64.5745 42.7633 64.6174C42.7261 64.6605 42.6673 64.699 42.5873 64.7333C42.5072 64.7676 42.4029 64.7975 42.2742 64.8232C42.1455 64.8489 41.9809 64.8619 41.7807 64.8619H41.1372C40.6911 64.8619 40.3492 64.7605 40.112 64.5574C39.8747 64.3546 39.7559 64.0586 39.7559 63.6699V63.4552C39.7559 63.0953 39.8674 62.8079 40.0905 62.5935C40.3136 62.3793 40.6482 62.2718 41.0943 62.2718H41.755Z" fill="white"/>
<path d="M45.2467 64.8621H44.6289V60.6256H45.2467V64.8621ZM45.2467 59.5278H44.6289V58.9102H45.2467V59.5278Z" fill="white"/>
<path d="M49.9703 61.0584C50.2477 61.3471 50.3865 61.7574 50.3865 62.2891V64.8619H49.7688V62.2891C49.7688 61.8946 49.6799 61.6017 49.5028 61.4102C49.3253 61.2187 49.0192 61.1228 48.5847 61.1228H48.1643C47.7639 61.1228 47.4678 61.2273 47.2762 61.4359C47.0846 61.6446 46.9889 61.9289 46.9889 62.2891V64.8619H46.3711V60.6254H46.9889V61.1912C47.0689 61.0428 47.2034 60.9113 47.3921 60.7969C47.5809 60.6826 47.8326 60.6254 48.1472 60.6254H48.5847C49.2311 60.6254 49.6929 60.7699 49.9703 61.0584Z" fill="white"/>
<path d="M52.1099 64.8621H51.4922V60.6256H52.1099V64.8621ZM52.1099 59.5278H51.4922V58.9102H52.1099V59.5278Z" fill="white"/>
<path d="M56.8336 61.0584C57.111 61.3471 57.2498 61.7574 57.2498 62.2891V64.8619H56.6321V62.2891C56.6321 61.8946 56.5432 61.6017 56.3661 61.4102C56.1885 61.2187 55.8825 61.1228 55.448 61.1228H55.0276C54.6272 61.1228 54.3311 61.2273 54.1395 61.4359C53.9478 61.6446 53.8521 61.9289 53.8521 62.2891V64.8619H53.2344V60.6254H53.8521V61.1912C53.9322 61.0428 54.0666 60.9113 54.2554 60.7969C54.4442 60.6826 54.6958 60.6254 55.0104 60.6254H55.448C56.0944 60.6254 56.5562 60.7699 56.8336 61.0584Z" fill="white"/>
<path d="M59.9701 61.1314C59.747 61.1314 59.5583 61.1529 59.4038 61.1956C59.2494 61.2385 59.1251 61.3128 59.0305 61.4188C58.9363 61.5246 58.8677 61.6662 58.8246 61.8432C58.7819 62.0204 58.7603 62.2434 58.7603 62.5121V62.9924C58.7603 63.2439 58.7819 63.4552 58.8246 63.627C58.8677 63.7985 58.9377 63.9372 59.0349 64.0428C59.1321 64.1488 59.2564 64.2244 59.4082 64.27C59.5596 64.3159 59.747 64.3388 59.9701 64.3388H60.3648C60.605 64.3388 60.8052 64.3087 60.9654 64.2488C61.1253 64.1886 61.2529 64.1002 61.3473 63.983C61.4415 63.8658 61.5073 63.7213 61.5447 63.5498C61.5816 63.3783 61.6003 63.1839 61.6003 62.9666V62.4778C61.6003 62.2663 61.5832 62.0763 61.5488 61.9074C61.5145 61.7389 61.4529 61.5973 61.3643 61.483C61.2756 61.3686 61.1513 61.2816 60.9911 61.2213C60.831 61.1615 60.6279 61.1314 60.382 61.1314H59.9701ZM60.442 60.6168C60.6422 60.6168 60.8081 60.6311 60.9397 60.6595C61.0712 60.6883 61.1784 60.7283 61.2615 60.7795C61.3442 60.8312 61.41 60.8897 61.4589 60.9555C61.5073 61.0214 61.5488 61.0885 61.5832 61.1571V60.6168H62.2009V65.06C62.2009 65.2955 62.1708 65.511 62.1107 65.7063C62.0509 65.9016 61.955 66.0709 61.8234 66.2147C61.6918 66.3583 61.5158 66.4702 61.2956 66.5509C61.0754 66.6312 60.8081 66.6712 60.4935 66.6712H59.9186C59.3581 66.6712 58.9577 66.5756 58.7174 66.3842C58.4772 66.1925 58.3571 65.9108 58.3571 65.5394H58.9748C58.9748 65.7338 59.0419 65.8838 59.1766 65.9898C59.3108 66.0953 59.5611 66.1481 59.9272 66.1481H60.4935C60.8996 66.1481 61.1828 66.0518 61.3429 65.8591C61.5031 65.6661 61.5832 65.4 61.5832 65.0605V64.3645C61.5488 64.4217 61.5059 64.4802 61.4545 64.5402C61.403 64.6002 61.3357 64.6532 61.2529 64.699C61.17 64.7449 61.0655 64.7832 60.9397 64.8146C60.8138 64.8463 60.6565 64.8619 60.4678 64.8619H59.9186C59.2666 64.8619 58.8076 64.7047 58.5417 64.3902C58.2755 64.076 58.1426 63.6127 58.1426 63.0009V62.5035C58.1426 61.8346 58.2871 61.353 58.576 61.0584C58.8646 60.7639 59.3238 60.6168 59.953 60.6168H60.442Z" fill="white"/>
<path d="M66.9973 58.5243H66.5254V66.0025H66.9973V58.5243Z" fill="white"/>
<path d="M74.7613 59.7638C74.5954 59.5951 74.3323 59.5109 73.972 59.5109H71.9985V61.7063H73.972C74.3323 61.7063 74.5954 61.6278 74.7613 61.4704C74.9272 61.3132 75.0101 61.026 75.0101 60.6086C75.0101 60.2141 74.9272 59.9327 74.7613 59.7638ZM74.6669 58.992C74.8729 59.0463 75.0458 59.1393 75.1861 59.2708C75.3261 59.4021 75.435 59.578 75.5122 59.7981C75.5894 60.0182 75.6279 60.2942 75.6279 60.6258C75.6279 60.9631 75.5894 61.2388 75.5122 61.4532C75.435 61.6676 75.3261 61.8392 75.1861 61.9678C75.0458 62.0964 74.8742 62.1853 74.6713 62.2337C74.4681 62.2822 74.2408 62.3064 73.9891 62.3064H71.9985V64.8623H71.3379V58.9104H73.972C74.2294 58.9104 74.461 58.9376 74.6669 58.992Z" fill="white"/>
<path d="M77.2506 58.9104H76.6328V64.8621H77.2506V58.9104Z" fill="white"/>
<path d="M79.1004 64.1543C79.2346 64.2774 79.4735 64.3388 79.8167 64.3388H80.4774C80.8091 64.3388 81.0423 64.273 81.1768 64.1413C81.311 64.01 81.3783 63.8187 81.3783 63.5669C81.3783 63.4469 81.364 63.3382 81.3354 63.2411C81.3068 63.1439 81.2568 63.0623 81.1853 62.9965C81.1136 62.931 81.0151 62.8809 80.8892 62.8466C80.7634 62.812 80.6032 62.7949 80.4087 62.7949H79.8081C79.4707 62.7949 79.2346 62.8567 79.1004 62.9794C78.966 63.1025 78.8987 63.2982 78.8987 63.5669C78.8987 63.8357 78.966 64.0314 79.1004 64.1543ZM80.3058 62.2718C80.4774 62.2718 80.6204 62.2806 80.7348 62.2977C80.8492 62.3149 80.9477 62.3406 81.0309 62.3749C81.1136 62.409 81.1823 62.4477 81.2368 62.4908C81.2912 62.5334 81.3411 62.5807 81.3869 62.6322V61.8346C81.3869 61.5773 81.3211 61.3972 81.1895 61.2943C81.058 61.1912 80.8606 61.14 80.5975 61.14H79.7567C79.4993 61.14 79.3134 61.18 79.199 61.26C79.0846 61.3401 79.0274 61.4716 79.0274 61.6545V61.7229H78.4096V61.6545C78.4096 61.3401 78.5112 61.0898 78.7143 60.9042C78.9171 60.7184 79.2533 60.6254 79.7223 60.6254H80.6147C81.0837 60.6254 81.4326 60.7298 81.6614 60.9383C81.8902 61.147 82.0046 61.4172 82.0046 61.7488V64.8619H81.3954V64.5017C81.3783 64.5358 81.351 64.5745 81.314 64.6174C81.2769 64.6605 81.2181 64.699 81.138 64.7333C81.058 64.7676 80.9537 64.7975 80.825 64.8232C80.6963 64.8489 80.5317 64.8619 80.3315 64.8619H79.688C79.2419 64.8619 78.9 64.7605 78.6628 64.5574C78.4254 64.3546 78.3066 64.0586 78.3066 63.6699V63.4552C78.3066 63.0953 78.4182 62.8079 78.6413 62.5935C78.8643 62.3793 79.199 62.2718 79.6451 62.2718H80.3058Z" fill="white"/>
<path d="M86.1551 63.2153H86.73V63.4299C86.73 63.6241 86.7098 63.8071 86.6699 63.9788C86.6299 64.1501 86.554 64.3016 86.4427 64.4331C86.3309 64.5648 86.1767 64.6688 85.9791 64.7462C85.7818 64.8232 85.5259 64.8619 85.2113 64.8619H84.585C84.3276 64.8619 84.1017 64.832 83.9072 64.772C83.7127 64.7119 83.5497 64.6121 83.4181 64.4718C83.2863 64.3317 83.1878 64.1431 83.122 63.9058C83.0562 63.6688 83.0234 63.3728 83.0234 63.0183V62.4521C83.0234 62.0978 83.0562 61.8018 83.122 61.5646C83.1878 61.3273 83.2894 61.1373 83.4267 60.9942C83.564 60.8515 83.7369 60.7499 83.9459 60.6898C84.1545 60.6298 84.402 60.5997 84.688 60.5997H85.0998C85.3515 60.5997 85.5787 60.6241 85.7818 60.6727C85.9849 60.7213 86.1565 60.8 86.2968 60.9086C86.4367 61.0173 86.5441 61.1586 86.6185 61.3328C86.6926 61.5074 86.73 61.7203 86.73 61.972V62.1007H86.1551V61.9032C86.1551 61.6288 86.0792 61.4318 85.9277 61.3115C85.7761 61.1914 85.5059 61.1314 85.117 61.1314H84.6708C84.4592 61.1314 84.2832 61.1529 84.143 61.1956C84.0029 61.2387 83.8929 61.3143 83.8128 61.4232C83.7325 61.5318 83.6755 61.6776 83.6412 61.8603C83.6069 62.0435 83.5897 62.2751 83.5897 62.555V62.9323C83.5897 63.2125 83.6097 63.444 83.6498 63.627C83.6896 63.8101 83.7512 63.9544 83.8341 64.0602C83.9171 64.1659 84.0216 64.2387 84.1474 64.2788C84.273 64.319 84.4248 64.3388 84.6022 64.3388H85.0826C85.3 64.3388 85.4773 64.3247 85.6146 64.2959C85.7519 64.2673 85.8606 64.2161 85.9406 64.1415C86.0207 64.0674 86.0764 63.9658 86.1081 63.8372C86.1393 63.7086 86.1551 63.5443 86.1551 63.344V63.2153Z" fill="white"/>
<path d="M89.2784 61.14C89.0782 61.14 88.9138 61.1615 88.7851 61.2042C88.6564 61.247 88.5548 61.3172 88.4804 61.4144C88.4061 61.5116 88.3546 61.636 88.326 61.7873C88.2974 61.9391 88.2831 62.126 88.2831 62.3492H90.8399C90.8399 62.1319 90.8298 61.9476 90.8098 61.7959C90.7898 61.6446 90.7455 61.5202 90.6769 61.423C90.6083 61.3258 90.5066 61.2545 90.3724 61.2086C90.2378 61.1628 90.0563 61.14 89.8275 61.14H89.2784ZM88.5961 64.7806C88.4045 64.7262 88.243 64.6319 88.1115 64.4975C87.9799 64.363 87.8811 64.1831 87.8156 63.9573C87.7496 63.7312 87.7168 63.4469 87.7168 63.1038V62.3663C87.7168 61.7488 87.844 61.3 88.0987 61.0199C88.353 60.74 88.7407 60.5997 89.2612 60.5997H89.8103C90.348 60.5997 90.7497 60.7283 91.0157 60.9856C91.2817 61.2429 91.4148 61.6002 91.4148 62.0576V62.8637H88.2831V63.3611C88.2831 63.7042 88.3616 63.9529 88.5191 64.1072C88.6764 64.2614 88.9294 64.3388 89.2784 64.3388H89.8275C90.205 64.3388 90.4681 64.2801 90.6168 64.1629C90.7656 64.0459 90.8399 63.87 90.8399 63.6356V63.5069H91.4148V63.687C91.4148 63.9043 91.3732 64.0888 91.2905 64.2403C91.2075 64.3916 91.0945 64.5132 90.9515 64.6046C90.8085 64.6961 90.6395 64.7619 90.4452 64.8017C90.2508 64.8419 90.0391 64.8619 89.8103 64.8619H89.2612C89.0095 64.8619 88.788 64.8349 88.5961 64.7806Z" fill="white"/>
<path d="M98.6097 60.7413C98.8183 60.8185 98.9912 60.9227 99.1287 61.0542C99.2658 61.1857 99.3674 61.3414 99.4334 61.5217C99.499 61.7018 99.5318 61.8946 99.5318 62.1007V64.8619H98.9144V62.0404C98.9144 61.7831 98.8341 61.5703 98.674 61.4016C98.5138 61.233 98.2536 61.1487 97.8932 61.1487H97.4642C97.2354 61.1487 97.0453 61.18 96.8935 61.2429C96.7419 61.3057 96.622 61.386 96.5334 61.483C96.4445 61.5802 96.3818 61.6846 96.3444 61.7961C96.3072 61.9076 96.2887 62.0092 96.2887 62.1007V64.8619H95.6712V62.1007C95.6712 62.0092 95.6565 61.9076 95.6281 61.7961C95.5993 61.6846 95.5465 61.5802 95.4695 61.483C95.3922 61.386 95.2877 61.3057 95.1564 61.2429C95.0244 61.18 94.8561 61.1487 94.65 61.1487H94.2295C93.9776 61.1487 93.7748 61.1844 93.6204 61.2558C93.4659 61.3273 93.3458 61.4159 93.2602 61.5217C93.1742 61.6275 93.117 61.7389 93.0882 61.8559C93.0596 61.9734 93.0455 62.0778 93.0455 62.1691V64.8619H92.4277V60.6256H93.0455V61.2C93.1368 61.0456 93.2774 60.9113 93.4659 60.7969C93.6547 60.6826 93.9119 60.6256 94.2381 60.6256H94.65C94.9016 60.6256 95.112 60.6467 95.2805 60.6898C95.4494 60.7327 95.588 60.7883 95.6969 60.8569C95.8052 60.9255 95.8899 61.0027 95.9499 61.0885C96.01 61.1745 96.0569 61.2574 96.0914 61.3372C96.1312 61.2514 96.1871 61.1659 96.2586 61.0799C96.3303 60.9942 96.4203 60.9185 96.529 60.8528C96.6374 60.787 96.7694 60.7327 96.9237 60.6898C97.0781 60.6467 97.2609 60.6256 97.4728 60.6256H97.8675C98.1535 60.6256 98.401 60.6639 98.6097 60.7413Z" fill="white"/>
<path d="M101.942 61.14C101.742 61.14 101.578 61.1615 101.449 61.2042C101.32 61.247 101.219 61.3172 101.144 61.4144C101.07 61.5116 101.019 61.636 100.99 61.7873C100.961 61.9391 100.947 62.126 100.947 62.3492H103.504C103.504 62.1319 103.494 61.9476 103.474 61.7959C103.454 61.6446 103.41 61.5202 103.341 61.423C103.272 61.3258 103.171 61.2545 103.036 61.2086C102.902 61.1628 102.72 61.14 102.492 61.14H101.942ZM101.26 64.7806C101.069 64.7262 100.907 64.6319 100.776 64.4975C100.644 64.363 100.545 64.1831 100.48 63.9573C100.414 63.7312 100.381 63.4469 100.381 63.1038V62.3663C100.381 61.7488 100.508 61.3 100.763 61.0199C101.017 60.74 101.405 60.5997 101.925 60.5997H102.474C103.012 60.5997 103.414 60.7283 103.68 60.9856C103.946 61.2429 104.079 61.6002 104.079 62.0576V62.8637H100.947V63.3611C100.947 63.7042 101.026 63.9529 101.183 64.1072C101.341 64.2614 101.593 64.3388 101.942 64.3388H102.492C102.869 64.3388 103.132 64.2801 103.281 64.1629C103.43 64.0459 103.504 63.87 103.504 63.6356V63.5069H104.079V63.687C104.079 63.9043 104.037 64.0888 103.955 64.2403C103.872 64.3916 103.759 64.5132 103.616 64.6046C103.473 64.6961 103.304 64.7619 103.11 64.8017C102.915 64.8419 102.703 64.8619 102.474 64.8619H101.925C101.673 64.8619 101.452 64.8349 101.26 64.7806Z" fill="white"/>
<path d="M108.699 61.0584C108.976 61.3471 109.115 61.7574 109.115 62.2891V64.8619H108.498V62.2891C108.498 61.8946 108.409 61.6017 108.231 61.4102C108.054 61.2187 107.748 61.1228 107.313 61.1228H106.893C106.493 61.1228 106.197 61.2273 106.005 61.4359C105.813 61.6446 105.717 61.9289 105.717 62.2891V64.8619H105.1V60.6254H105.717V61.1912C105.797 61.0428 105.932 60.9113 106.121 60.7969C106.31 60.6826 106.561 60.6254 106.876 60.6254H107.313C107.96 60.6254 108.421 60.7699 108.699 61.0584Z" fill="white"/>
<path d="M112.127 64.3302C112.367 64.3302 112.526 64.273 112.603 64.1587C112.681 64.0443 112.719 63.8842 112.719 63.6784H113.337C113.337 63.8957 113.311 64.0802 113.259 64.2317C113.208 64.383 113.134 64.5061 113.036 64.6004C112.939 64.6946 112.822 64.7618 112.685 64.8019C112.547 64.8419 112.393 64.8619 112.221 64.8619H111.578C111.412 64.8619 111.257 64.8377 111.114 64.7891C110.971 64.7405 110.847 64.6633 110.741 64.5573C110.635 64.4518 110.553 64.3161 110.492 64.1501C110.432 63.9843 110.402 63.7813 110.402 63.5412V61.1914H109.879V60.6254H110.402V59.8107H111.02V60.6254H113.054V61.1914H111.02V63.6012C111.02 63.8583 111.077 64.0443 111.192 64.1587C111.306 64.273 111.475 64.3302 111.698 64.3302H112.127Z" fill="white"/>
<path d="M117.97 58.5243H117.498V66.0025H117.97V58.5243Z" fill="white"/>
<path d="M122.227 61.5946C122.227 61.0458 122.269 60.5943 122.355 60.2396C122.441 59.8854 122.579 59.605 122.772 59.3994C122.963 59.1934 123.215 59.0507 123.526 58.9704C123.838 58.8904 124.217 58.8506 124.663 58.8506H124.989C125.796 58.8506 126.385 58.9891 126.757 59.2664C127.129 59.5437 127.314 59.9683 127.314 60.5398H126.697C126.697 60.374 126.671 60.224 126.62 60.0897C126.568 59.9553 126.478 59.8423 126.349 59.7508C126.22 59.6596 126.048 59.5894 125.83 59.5408C125.613 59.4922 125.338 59.4678 125.006 59.4678H124.663C124.303 59.4678 124.005 59.4935 123.771 59.5452C123.536 59.5964 123.35 59.698 123.213 59.8493C123.076 60.001 122.98 60.2157 122.926 60.4927C122.871 60.77 122.844 61.1346 122.844 61.5861V62.1349C122.844 62.598 122.869 62.9683 122.917 63.2456C122.966 63.5231 123.06 63.7358 123.201 63.8844C123.34 64.0333 123.536 64.1318 123.788 64.1804C124.04 64.229 124.366 64.2534 124.766 64.2534H125.161C125.447 64.2534 125.688 64.2334 125.886 64.1931C126.083 64.1533 126.242 64.0891 126.362 64.0001C126.482 63.9117 126.569 63.8002 126.624 63.6658C126.678 63.5317 126.705 63.3698 126.705 63.1814H127.323C127.323 63.4613 127.286 63.7061 127.212 63.9145C127.137 64.1232 127.016 64.2976 126.847 64.4377C126.678 64.5777 126.458 64.6835 126.186 64.755C125.914 64.8264 125.581 64.8621 125.187 64.8621H124.766C124.269 64.8621 123.857 64.8249 123.531 64.7508C123.205 64.6765 122.946 64.5393 122.754 64.3389C122.562 64.1388 122.427 63.8618 122.347 63.5071C122.267 63.1528 122.227 62.6954 122.227 62.1349V61.5946Z" fill="white"/>
<path d="M130.771 64.2873C130.902 64.2532 131.008 64.193 131.088 64.1074C131.168 64.0215 131.226 63.9058 131.26 63.76C131.294 63.614 131.311 63.4299 131.311 63.2068V62.3579C131.311 62.1176 131.296 61.919 131.264 61.7618C131.233 61.6046 131.177 61.4801 131.097 61.3887C131.017 61.2972 130.911 61.233 130.779 61.1956C130.648 61.1586 130.485 61.1399 130.29 61.1399H129.776C129.575 61.1399 129.408 61.1586 129.274 61.1956C129.139 61.233 129.034 61.2972 128.956 61.3887C128.879 61.4801 128.825 61.6046 128.793 61.7618C128.762 61.919 128.746 62.1176 128.746 62.3579V63.2068C128.746 63.4299 128.763 63.614 128.797 63.76C128.832 63.9058 128.889 64.0215 128.969 64.1074C129.049 64.193 129.155 64.2532 129.287 64.2873C129.418 64.3216 129.581 64.3388 129.776 64.3388H130.29C130.479 64.3388 130.639 64.3216 130.771 64.2873ZM131.045 60.7197C131.245 60.794 131.407 60.9042 131.53 61.0498C131.653 61.1956 131.742 61.3788 131.796 61.5986C131.85 61.819 131.877 62.0721 131.877 62.3579V63.2068C131.877 63.4869 131.85 63.7314 131.796 63.9401C131.742 64.1488 131.653 64.3216 131.53 64.4588C131.407 64.5961 131.245 64.699 131.045 64.7678C130.845 64.8362 130.599 64.8705 130.308 64.8705H129.758C129.461 64.8705 129.212 64.8362 129.012 64.7678C128.812 64.699 128.65 64.5961 128.527 64.4588C128.404 64.3216 128.315 64.1488 128.261 63.9401C128.207 63.7314 128.18 63.4869 128.18 63.2068V62.3579C128.18 62.0721 128.207 61.819 128.261 61.5986C128.315 61.3788 128.404 61.1956 128.527 61.0498C128.65 60.9042 128.813 60.794 129.016 60.7197C129.219 60.6454 129.466 60.6085 129.758 60.6085H130.308C130.599 60.6085 130.845 60.6454 131.045 60.7197Z" fill="white"/>
<path d="M136.361 61.0584C136.638 61.3471 136.777 61.7574 136.777 62.2891V64.8619H136.159V62.2891C136.159 61.8946 136.071 61.6017 135.893 61.4102C135.716 61.2187 135.41 61.1228 134.975 61.1228H134.555C134.154 61.1228 133.858 61.2273 133.667 61.4359C133.475 61.6446 133.379 61.9289 133.379 62.2891V64.8619H132.762V60.6254H133.379V61.1912C133.459 61.0428 133.594 60.9113 133.783 60.7969C133.971 60.6826 134.223 60.6254 134.538 60.6254H134.975C135.622 60.6254 136.083 60.7699 136.361 61.0584Z" fill="white"/>
<path d="M138.184 63.5069V63.5584C138.184 64.0789 138.493 64.3388 139.111 64.3388H140.115C140.389 64.3388 140.598 64.2946 140.741 64.206C140.884 64.1171 140.956 63.9329 140.956 63.6527C140.956 63.4185 140.903 63.2483 140.797 63.1425C140.691 63.0366 140.495 62.9809 140.209 62.9752L138.785 62.9409C138.436 62.9295 138.161 62.838 137.961 62.6665C137.761 62.495 137.661 62.2465 137.661 61.9204V61.7488C137.661 61.5888 137.687 61.4388 137.738 61.2987C137.79 61.1586 137.868 61.0373 137.974 60.9341C138.08 60.8312 138.216 60.7499 138.382 60.6896C138.548 60.6298 138.742 60.5997 138.965 60.5997H139.909C140.206 60.5997 140.454 60.6327 140.651 60.6984C140.848 60.7639 141.007 60.8543 141.127 60.9684C141.248 61.083 141.333 61.2171 141.385 61.3715C141.436 61.5259 141.462 61.6888 141.462 61.8603V61.9461H140.93V61.8689C140.93 61.6404 140.857 61.4601 140.711 61.3286C140.565 61.1971 140.295 61.1314 139.901 61.1314H138.956C138.802 61.1314 138.675 61.1485 138.575 61.1828C138.475 61.2171 138.396 61.2631 138.339 61.32C138.282 61.3772 138.243 61.4458 138.223 61.5259C138.203 61.6059 138.193 61.6917 138.193 61.7831C138.193 62.0233 138.244 62.1878 138.347 62.2762C138.45 62.365 138.639 62.4121 138.914 62.4178L140.226 62.4521C140.655 62.4637 140.973 62.5677 141.179 62.7652C141.385 62.9622 141.488 63.2325 141.488 63.5755V63.7299C141.488 64.0674 141.378 64.3403 141.157 64.5488C140.937 64.7577 140.567 64.8619 140.046 64.8619H139.12C138.588 64.8619 138.21 64.7462 137.987 64.5147C137.764 64.2829 137.652 63.9757 137.652 63.5927V63.5069H138.184Z" fill="white"/>
<path d="M142.851 64.4588C142.594 64.1844 142.465 63.7671 142.465 63.2068V60.6254H143.083V63.2496C143.083 63.6213 143.163 63.8884 143.323 64.0514C143.483 64.2145 143.766 64.2959 144.172 64.2959H144.541C144.936 64.2959 145.238 64.2101 145.447 64.0386C145.655 63.8671 145.76 63.6041 145.76 63.2496V60.6254H146.377V64.8619H145.777V64.3731C145.731 64.4303 145.678 64.489 145.618 64.5488C145.558 64.609 145.481 64.6618 145.386 64.7075C145.292 64.7535 145.179 64.792 145.047 64.8232C144.916 64.8549 144.756 64.8705 144.567 64.8705H144.181C143.552 64.8705 143.109 64.7333 142.851 64.4588Z" fill="white"/>
<path d="M148.221 58.9104H147.604V64.8621H148.221V58.9104Z" fill="white"/>
<path d="M151.457 64.3302C151.697 64.3302 151.856 64.273 151.933 64.1587C152.01 64.0443 152.049 63.8842 152.049 63.6784H152.667C152.667 63.8957 152.641 64.0802 152.59 64.2317C152.538 64.383 152.464 64.5061 152.367 64.6004C152.269 64.6946 152.152 64.7618 152.015 64.8019C151.878 64.8419 151.723 64.8619 151.552 64.8619H150.908C150.742 64.8619 150.588 64.8377 150.445 64.7891C150.302 64.7405 150.177 64.6633 150.071 64.5573C149.966 64.4518 149.883 64.3161 149.822 64.1501C149.763 63.9843 149.733 63.7813 149.733 63.5412V61.1914H149.209V60.6254H149.733V59.8107H150.35V60.6254H152.384V61.1914H150.35V63.6012C150.35 63.8583 150.407 64.0443 150.522 64.1587C150.636 64.273 150.805 64.3302 151.028 64.3302H151.457Z" fill="white"/>
<path d="M154.272 64.8621H153.654V60.6256H154.272V64.8621ZM154.272 59.5278H153.654V58.9102H154.272V59.5278Z" fill="white"/>
<path d="M158.996 61.0584C159.273 61.3471 159.412 61.7574 159.412 62.2891V64.8619H158.794V62.2891C158.794 61.8946 158.706 61.6017 158.528 61.4102C158.351 61.2187 158.045 61.1228 157.61 61.1228H157.19C156.79 61.1228 156.493 61.2273 156.302 61.4359C156.11 61.6446 156.014 61.9289 156.014 62.2891V64.8619H155.396V60.6254H156.014V61.1912C156.094 61.0428 156.229 60.9113 156.418 60.7969C156.606 60.6826 156.858 60.6254 157.173 60.6254H157.61C158.256 60.6254 158.718 60.7699 158.996 61.0584Z" fill="white"/>
<path d="M162.13 61.1314C161.907 61.1314 161.718 61.1529 161.564 61.1956C161.41 61.2385 161.285 61.3128 161.191 61.4188C161.097 61.5246 161.028 61.6662 160.985 61.8432C160.942 62.0204 160.92 62.2434 160.92 62.5121V62.9924C160.92 63.2439 160.942 63.4552 160.985 63.627C161.028 63.7985 161.098 63.9372 161.195 64.0428C161.292 64.1488 161.417 64.2244 161.568 64.27C161.72 64.3159 161.907 64.3388 162.13 64.3388H162.525C162.765 64.3388 162.965 64.3087 163.126 64.2488C163.286 64.1886 163.413 64.1002 163.508 63.983C163.602 63.8658 163.667 63.7213 163.705 63.5498C163.742 63.3783 163.761 63.1839 163.761 62.9666V62.4778C163.761 62.2663 163.744 62.0763 163.709 61.9074C163.675 61.7389 163.613 61.5973 163.525 61.483C163.436 61.3686 163.311 61.2816 163.152 61.2213C162.991 61.1615 162.788 61.1314 162.542 61.1314H162.13ZM162.602 60.6168C162.803 60.6168 162.968 60.6311 163.1 60.6595C163.231 60.6883 163.339 60.7283 163.422 60.7795C163.505 60.8312 163.57 60.8897 163.619 60.9555C163.667 61.0214 163.709 61.0885 163.744 61.1571V60.6168H164.361V65.06C164.361 65.2955 164.331 65.511 164.271 65.7063C164.211 65.9016 164.115 66.0709 163.984 66.2147C163.852 66.3583 163.676 66.4702 163.456 66.5509C163.236 66.6312 162.968 66.6712 162.654 66.6712H162.079C161.518 66.6712 161.118 66.5756 160.878 66.3842C160.637 66.1925 160.517 65.9108 160.517 65.5394H161.135C161.135 65.7338 161.202 65.8838 161.337 65.9898C161.471 66.0953 161.722 66.1481 162.088 66.1481H162.654C163.06 66.1481 163.343 66.0518 163.503 65.8591C163.663 65.6661 163.744 65.4 163.744 65.0605V64.3645C163.709 64.4217 163.666 64.4802 163.615 64.5402C163.563 64.6002 163.496 64.6532 163.413 64.699C163.33 64.7449 163.226 64.7832 163.1 64.8146C162.974 64.8463 162.817 64.8619 162.628 64.8619H162.079C161.427 64.8619 160.968 64.7047 160.702 64.3902C160.436 64.076 160.303 63.6127 160.303 63.0009V62.5035C160.303 61.8346 160.447 61.353 160.736 61.0584C161.025 60.7639 161.484 60.6168 162.113 60.6168H162.602Z" fill="white"/>
<path fill-rule="evenodd" clip-rule="evenodd" d="M106.719 14.8957C106.732 14.9216 106.746 14.9473 106.759 14.9737C109.263 19.9627 105.443 26.9402 98.1469 25.6701C96.7719 25.4307 96.4093 24.9693 95.7469 25.3423C95.3727 25.5529 94.6638 26.2621 94.0595 26.637C93.4175 27.0352 92.8594 27.3565 92.1037 27.7237L89.2151 28.9673C89.8698 29.3272 92.3373 29.0512 93.0215 28.8958C94.7369 28.5057 95.2325 28.056 95.8338 27.8917C96.6753 27.6622 98.2864 28.6392 100.87 28.3674C107.006 27.7213 111.755 21.9607 110.158 15.7645C109.866 14.6307 109.437 13.6647 108.853 12.7851C108.14 13.5048 107.424 14.2089 106.719 14.8957ZM112.371 5.23895L111.49 9.77078C111.212 11.2001 111.11 11.2722 110.006 10.2772L109.512 9.84774C108.071 11.3974 106.51 12.9219 105.018 14.3701C99.6004 19.6267 90.5657 27.7693 83.1301 27.9924C70.8429 28.3614 67.784 11.263 79.9515 8.47208C80.4226 8.36389 80.3328 8.39885 80.5178 7.96236C83.6387 0.424551 94.2698 -0.990478 99.6895 4.71802C100.35 5.3423 101.036 6.43232 101.492 7.23032C101.982 8.08946 101.839 8.16313 102.456 8.42546C102.967 8.64294 103.429 8.80192 103.867 8.95343C103.118 9.70987 102.3 10.5338 101.433 11.3919C100.496 11.2837 99.5201 11.3318 98.5576 11.5238C96.7618 11.8818 95.7484 12.6697 94.2914 13.2977C94.74 11.8246 96.2289 10.4949 97.4279 9.69756C97.8811 9.39608 98.3981 9.13594 98.9164 8.91934C98.4454 7.86736 96.6192 6.16559 95.4576 5.58463C91.3082 3.50947 86.0746 4.77453 83.7164 8.81116C83.2753 9.5665 82.92 10.2748 82.5746 11.1555C82.4985 11.3221 82.3352 11.2588 82.1042 11.2621C71.5242 11.3976 73.9297 26.9695 84.8657 25.025C91.7935 23.7931 100.602 14.4759 105.338 9.68744C105.97 9.04843 106.569 8.44327 107.152 7.79744L106.52 7.24858C105.421 6.29313 105.409 6.16933 106.823 5.71106L111.19 4.20786C112.568 3.73376 112.681 3.78566 112.371 5.23895Z" fill="white"/>
</g>
<defs>
<clipPath id="clip0_4734_6134">
<rect width="185" height="68" fill="white"/>
</clipPath>
</defs>
</svg>
