<svg width="28" height="28" viewBox="0 0 28 28" fill="none" xmlns="http://www.w3.org/2000/svg">
<mask id="mask0_243_1569" style="mask-type:alpha" maskUnits="userSpaceOnUse" x="0" y="0" width="28" height="28">
<rect width="28" height="28" fill="#D9D9D9"/>
</mask>
<g mask="url(#mask0_243_1569)">
<path d="M5.83333 24.4992C5.19167 24.4992 4.64236 24.2707 4.18542 23.8138C3.72847 23.3569 3.5 22.8076 3.5 22.1659V5.83255C3.5 5.19089 3.72847 4.64158 4.18542 4.18464C4.64236 3.72769 5.19167 3.49922 5.83333 3.49922H13.4458C13.8347 3.49922 14.1264 3.62075 14.3208 3.8638C14.5153 4.10686 14.6125 4.37422 14.6125 4.66589C14.6125 4.95755 14.5104 5.22491 14.3063 5.46797C14.1021 5.71102 13.8056 5.83255 13.4167 5.83255H5.83333V22.1659H22.1667V14.5534C22.1667 14.1645 22.2882 13.8728 22.5313 13.6784C22.7743 13.4839 23.0417 13.3867 23.3333 13.3867C23.625 13.3867 23.8924 13.4839 24.1354 13.6784C24.3785 13.8728 24.5 14.1645 24.5 14.5534V22.1659C24.5 22.8076 24.2715 23.3569 23.8146 23.8138C23.3576 24.2707 22.8083 24.4992 22.1667 24.4992H5.83333ZM10.5 16.3326V13.5034C10.5 13.1923 10.5583 12.8957 10.675 12.6138C10.7917 12.3319 10.9569 12.0839 11.1708 11.8701L21.2042 1.83672C21.4375 1.60339 21.7 1.42839 21.9917 1.31172C22.2833 1.19505 22.575 1.13672 22.8667 1.13672C23.1778 1.13672 23.4743 1.19505 23.7563 1.31172C24.0382 1.42839 24.2958 1.60339 24.5292 1.83672L26.1625 3.49922C26.3764 3.73255 26.5417 3.99019 26.6583 4.27214C26.775 4.55408 26.8333 4.84089 26.8333 5.13255C26.8333 5.42422 26.7799 5.71102 26.6729 5.99297C26.566 6.27491 26.3958 6.53255 26.1625 6.76589L16.1292 16.7992C15.9153 17.0131 15.6674 17.1832 15.3854 17.3096C15.1035 17.436 14.8069 17.4992 14.4958 17.4992H11.6667C11.3361 17.4992 11.059 17.3874 10.8354 17.1638C10.6118 16.9402 10.5 16.6631 10.5 16.3326ZM12.8333 15.1659H14.4667L21.2333 8.39922L20.4167 7.58255L19.5708 6.76589L12.8333 13.5034V15.1659Z" fill="#009FFF"/>
</g>
</svg>
