<svg width="28" height="28" viewBox="0 0 28 28" fill="none" xmlns="http://www.w3.org/2000/svg">
<mask id="mask0_243_1553" style="mask-type:alpha" maskUnits="userSpaceOnUse" x="0" y="0" width="28" height="28">
<rect width="28" height="28" fill="#D9D9D9"/>
</mask>
<g mask="url(#mask0_243_1553)">
<path d="M22.1667 17.5004C22.4001 17.2671 22.6771 17.1504 22.998 17.1504C23.3188 17.1504 23.5959 17.2671 23.8292 17.5004L25.6667 19.3671C25.9001 19.6004 26.0167 19.8726 26.0167 20.1837C26.0167 20.4948 25.9001 20.7671 25.6667 21.0004C25.4334 21.2337 25.1612 21.3504 24.8501 21.3504C24.539 21.3504 24.2667 21.2337 24.0334 21.0004L22.1667 19.1629C21.9334 18.9296 21.8167 18.6525 21.8167 18.3316C21.8167 18.0108 21.9334 17.7337 22.1667 17.5004ZM23.3334 3.50039C23.5667 3.73372 23.6834 4.01081 23.6834 4.33164C23.6834 4.65247 23.5667 4.92956 23.3334 5.16289L21.4959 7.00039C21.2626 7.23372 20.9855 7.35039 20.6646 7.35039C20.3438 7.35039 20.0667 7.23372 19.8334 7.00039C19.6001 6.76706 19.4834 6.48997 19.4834 6.16914C19.4834 5.84831 19.6001 5.57122 19.8334 5.33789L21.7001 3.50039C21.9334 3.26706 22.2056 3.15039 22.5167 3.15039C22.8278 3.15039 23.1001 3.26706 23.3334 3.50039ZM4.66673 3.50039C4.90006 3.26706 5.17715 3.15039 5.49798 3.15039C5.81882 3.15039 6.0959 3.26706 6.32923 3.50039L8.16673 5.36706C8.40007 5.60039 8.51673 5.87261 8.51673 6.18372C8.51673 6.49484 8.40007 6.76706 8.16673 7.00039C7.9334 7.23372 7.65632 7.35039 7.33548 7.35039C7.01465 7.35039 6.73756 7.23372 6.50423 7.00039L4.66673 5.16289C4.4334 4.92956 4.31673 4.65247 4.31673 4.33164C4.31673 4.01081 4.4334 3.73372 4.66673 3.50039ZM5.8334 17.5004C6.06673 17.7337 6.1834 18.0108 6.1834 18.3316C6.1834 18.6525 6.06673 18.9296 5.8334 19.1629L3.9959 21.0004C3.76257 21.2337 3.48548 21.3504 3.16465 21.3504C2.84382 21.3504 2.56673 21.2337 2.3334 21.0004C2.10007 20.7671 1.9834 20.49 1.9834 20.1691C1.9834 19.8483 2.10007 19.5712 2.3334 19.3379L4.20007 17.5004C4.4334 17.2671 4.70562 17.1504 5.01673 17.1504C5.32784 17.1504 5.60006 17.2671 5.8334 17.5004ZM10.3251 19.6296L14.0001 17.4129L17.6751 19.6587L16.7126 15.4587L19.9501 12.6587L15.6917 12.2796L14.0001 8.31289L12.3084 12.2504L8.05007 12.6296L11.2876 15.4587L10.3251 19.6296ZM14.0001 20.1546L9.1584 23.0712C8.94451 23.2073 8.7209 23.2657 8.48757 23.2462C8.25423 23.2268 8.05007 23.149 7.87507 23.0129C7.70007 22.8768 7.56395 22.7066 7.46673 22.5025C7.36951 22.2983 7.35007 22.0698 7.4084 21.8171L8.69173 16.3046L4.40423 12.6004C4.20979 12.4254 4.08826 12.2261 4.03965 12.0025C3.99104 11.7789 4.00562 11.5601 4.0834 11.3462C4.16118 11.1323 4.27784 10.9573 4.4334 10.8212C4.58895 10.6851 4.80284 10.5976 5.07507 10.5587L10.7334 10.0629L12.9209 4.87122C13.0181 4.63789 13.1688 4.46289 13.373 4.34622C13.5771 4.22956 13.7862 4.17122 14.0001 4.17122C14.214 4.17122 14.423 4.22956 14.6271 4.34622C14.8313 4.46289 14.982 4.63789 15.0792 4.87122L17.2667 10.0629L22.9251 10.5587C23.1973 10.5976 23.4112 10.6851 23.5667 10.8212C23.7223 10.9573 23.839 11.1323 23.9167 11.3462C23.9945 11.5601 24.0091 11.7789 23.9605 12.0025C23.9119 12.2261 23.7903 12.4254 23.5959 12.6004L19.3084 16.3046L20.5917 21.8171C20.6501 22.0698 20.6306 22.2983 20.5334 22.5025C20.4362 22.7066 20.3001 22.8768 20.1251 23.0129C19.9501 23.149 19.7459 23.2268 19.5126 23.2462C19.2792 23.2657 19.0556 23.2073 18.8417 23.0712L14.0001 20.1546Z" fill="#009FFF"/>
</g>
</svg>
