<svg width="28" height="28" viewBox="0 0 28 28" fill="none" xmlns="http://www.w3.org/2000/svg">
<mask id="mask0_243_1544" style="mask-type:alpha" maskUnits="userSpaceOnUse" x="0" y="0" width="28" height="28">
<rect width="28" height="28" fill="#D9D9D9"/>
</mask>
<g mask="url(#mask0_243_1544)">
<path d="M3.49992 24.5C3.16936 24.5 2.89228 24.3882 2.66867 24.1646C2.44506 23.941 2.33325 23.6639 2.33325 23.3333C2.33325 23.0028 2.44506 22.7257 2.66867 22.5021C2.89228 22.2785 3.16936 22.1667 3.49992 22.1667H24.4999C24.8305 22.1667 25.1076 22.2785 25.3312 22.5021C25.5548 22.7257 25.6666 23.0028 25.6666 23.3333C25.6666 23.6639 25.5548 23.941 25.3312 24.1646C25.1076 24.3882 24.8305 24.5 24.4999 24.5H3.49992ZM5.24992 21C4.76381 21 4.35061 20.8299 4.01034 20.4896C3.67006 20.1493 3.49992 19.7361 3.49992 19.25V14.5833C3.49992 14.0972 3.67006 13.684 4.01034 13.3437C4.35061 13.0035 4.76381 12.8333 5.24992 12.8333C5.73603 12.8333 6.14922 13.0035 6.4895 13.3437C6.82978 13.684 6.99992 14.0972 6.99992 14.5833V19.25C6.99992 19.7361 6.82978 20.1493 6.4895 20.4896C6.14922 20.8299 5.73603 21 5.24992 21ZM11.0833 21C10.5971 21 10.1839 20.8299 9.84367 20.4896C9.50339 20.1493 9.33325 19.7361 9.33325 19.25V8.75C9.33325 8.26389 9.50339 7.85069 9.84367 7.51042C10.1839 7.17014 10.5971 7 11.0833 7C11.5694 7 11.9826 7.17014 12.3228 7.51042C12.6631 7.85069 12.8333 8.26389 12.8333 8.75V19.25C12.8333 19.7361 12.6631 20.1493 12.3228 20.4896C11.9826 20.8299 11.5694 21 11.0833 21ZM16.9166 21C16.4305 21 16.0173 20.8299 15.677 20.4896C15.3367 20.1493 15.1666 19.7361 15.1666 19.25V12.25C15.1666 11.7639 15.3367 11.3507 15.677 11.0104C16.0173 10.6701 16.4305 10.5 16.9166 10.5C17.4027 10.5 17.8159 10.6701 18.1562 11.0104C18.4964 11.3507 18.6666 11.7639 18.6666 12.25V19.25C18.6666 19.7361 18.4964 20.1493 18.1562 20.4896C17.8159 20.8299 17.4027 21 16.9166 21ZM22.7499 21C22.2638 21 21.8506 20.8299 21.5103 20.4896C21.1701 20.1493 20.9999 19.7361 20.9999 19.25V5.25C20.9999 4.76389 21.1701 4.35069 21.5103 4.01042C21.8506 3.67014 22.2638 3.5 22.7499 3.5C23.236 3.5 23.6492 3.67014 23.9895 4.01042C24.3298 4.35069 24.4999 4.76389 24.4999 5.25V19.25C24.4999 19.7361 24.3298 20.1493 23.9895 20.4896C23.6492 20.8299 23.236 21 22.7499 21Z" fill="#009FFF"/>
</g>
</svg>
