<svg width="28" height="28" viewBox="0 0 28 28" fill="none" xmlns="http://www.w3.org/2000/svg">
<mask id="mask0_243_1536" style="mask-type:alpha" maskUnits="userSpaceOnUse" x="0" y="0" width="28" height="28">
<rect width="28" height="28" fill="#D9D9D9"/>
</mask>
<g mask="url(#mask0_243_1536)">
<path d="M8.16663 23.3327C7.52497 23.3327 6.97566 23.1042 6.51872 22.6473C6.06177 22.1903 5.8333 21.641 5.8333 20.9993V10.2077L2.7708 6.59102C2.67358 6.47435 2.60552 6.35282 2.56663 6.22643C2.52775 6.10004 2.5083 5.96879 2.5083 5.83268C2.5083 5.52157 2.61525 5.24935 2.82913 5.01602C3.04302 4.78268 3.32497 4.66602 3.67497 4.66602H23.3333C23.975 4.66602 24.5243 4.89449 24.9812 5.35143C25.4382 5.80838 25.6666 6.35768 25.6666 6.99935V20.9993C25.6666 21.641 25.4382 22.1903 24.9812 22.6473C24.5243 23.1042 23.975 23.3327 23.3333 23.3327H8.16663ZM6.1833 6.99935L8.16663 9.33268V20.9993H23.3333V6.99935H6.1833ZM16.1 17.4993H19.8333C20.1639 17.4993 20.4409 17.3875 20.6646 17.1639C20.8882 16.9403 21 16.6632 21 16.3327C21 16.0021 20.8882 15.725 20.6646 15.5014C20.4409 15.2778 20.1639 15.166 19.8333 15.166H13.3291C12.8041 15.166 12.4396 15.4042 12.2354 15.8806C12.0312 16.357 12.1139 16.7799 12.4833 17.1493L14.9333 19.5993C15.1472 19.8132 15.4194 19.9202 15.75 19.9202C16.0805 19.9202 16.3527 19.8132 16.5666 19.5993C16.7805 19.3855 16.8875 19.1132 16.8875 18.7827C16.8875 18.4521 16.7805 18.1799 16.5666 17.966L16.1 17.4993ZM15.4 10.4993H11.6666C11.3361 10.4993 11.059 10.6112 10.8354 10.8348C10.6118 11.0584 10.5 11.3355 10.5 11.666C10.5 11.9966 10.6118 12.2737 10.8354 12.4973C11.059 12.7209 11.3361 12.8327 11.6666 12.8327H18.1708C18.6958 12.8327 19.0604 12.5945 19.2646 12.1181C19.4687 11.6417 19.3861 11.2188 19.0166 10.8493L16.5666 8.39935C16.3527 8.18546 16.0805 8.07852 15.75 8.07852C15.4194 8.07852 15.1472 8.18546 14.9333 8.39935C14.7194 8.61324 14.6125 8.88546 14.6125 9.21602C14.6125 9.54657 14.7194 9.81879 14.9333 10.0327L15.4 10.4993Z" fill="#009FFF"/>
</g>
</svg>
