<svg width="28" height="28" viewBox="0 0 28 28" fill="none" xmlns="http://www.w3.org/2000/svg">
<mask id="mask0_243_1155" style="mask-type:alpha" maskUnits="userSpaceOnUse" x="0" y="0" width="28" height="28">
<rect width="28" height="28" fill="#D9D9D9"/>
</mask>
<g mask="url(#mask0_243_1155)">
<path d="M11.6666 13.9993C10.3833 13.9993 9.28464 13.5424 8.37075 12.6285C7.45686 11.7146 6.99992 10.616 6.99992 9.33268C6.99992 8.04935 7.45686 6.95074 8.37075 6.03685C9.28464 5.12296 10.3833 4.66602 11.6666 4.66602C12.9499 4.66602 14.0485 5.12296 14.9624 6.03685C15.8763 6.95074 16.3333 8.04935 16.3333 9.33268C16.3333 10.616 15.8763 11.7146 14.9624 12.6285C14.0485 13.5424 12.9499 13.9993 11.6666 13.9993ZM2.33325 20.9994V20.066C2.33325 19.4243 2.49853 18.8216 2.82909 18.2577C3.15964 17.6938 3.61659 17.266 4.19992 16.9744C5.3277 16.4105 6.49436 15.9681 7.69992 15.6473C8.90547 15.3264 10.1402 15.166 11.4041 15.166C11.7346 15.166 12.0117 15.2827 12.2353 15.516C12.4589 15.7493 12.5708 16.0313 12.5708 16.3619C12.5708 16.6924 12.4589 16.9695 12.2353 17.1931C12.0117 17.4167 11.7346 17.5285 11.4041 17.5285C10.3152 17.5285 9.26034 17.6646 8.2395 17.9368C7.21867 18.2091 6.22214 18.5882 5.24992 19.0744C5.05547 19.1716 4.90964 19.3077 4.81242 19.4827C4.7152 19.6577 4.66659 19.8521 4.66659 20.066V20.9994H11.4041C11.7346 20.9994 12.0117 21.1112 12.2353 21.3348C12.4589 21.5584 12.5708 21.8355 12.5708 22.166C12.5708 22.4966 12.4589 22.7737 12.2353 22.9973C12.0117 23.2209 11.7346 23.3327 11.4041 23.3327H4.66659C4.02492 23.3327 3.47561 23.1042 3.01867 22.6473C2.56172 22.1903 2.33325 21.641 2.33325 20.9994ZM18.4916 23.566L18.3166 22.7494C18.0833 22.6521 17.8645 22.55 17.6603 22.4431C17.4562 22.3362 17.2471 22.2049 17.0333 22.0494L16.1874 22.3119C15.9346 22.3896 15.6867 22.3799 15.4437 22.2827C15.2006 22.1855 15.011 22.0299 14.8749 21.816L14.6416 21.4077C14.5055 21.1744 14.4569 20.9216 14.4958 20.6493C14.5346 20.3771 14.661 20.1535 14.8749 19.9785L15.5166 19.4244C15.4777 19.1521 15.4583 18.8993 15.4583 18.666C15.4583 18.4327 15.4777 18.1799 15.5166 17.9077L14.8749 17.3535C14.661 17.1785 14.5346 16.9598 14.4958 16.6973C14.4569 16.4348 14.5055 16.1868 14.6416 15.9535L14.9041 15.516C15.0402 15.3021 15.2249 15.1466 15.4583 15.0494C15.6916 14.9521 15.9346 14.9424 16.1874 15.0202L17.0333 15.2827C17.2471 15.1271 17.4562 14.9959 17.6603 14.8889C17.8645 14.782 18.0833 14.6799 18.3166 14.5827L18.4916 13.7368C18.5499 13.4646 18.6812 13.2459 18.8853 13.0806C19.0895 12.9153 19.3277 12.8327 19.5999 12.8327H20.0666C20.3388 12.8327 20.577 12.9202 20.7812 13.0952C20.9853 13.2702 21.1166 13.4938 21.1749 13.766L21.3499 14.5827C21.5833 14.6799 21.802 14.7869 22.0062 14.9035C22.2103 15.0202 22.4194 15.166 22.6333 15.341L23.4208 15.0785C23.693 14.9813 23.9555 14.9813 24.2083 15.0785C24.461 15.1757 24.6555 15.341 24.7916 15.5744L25.0249 15.9827C25.161 16.216 25.2096 16.4688 25.1708 16.741C25.1319 17.0132 25.0055 17.2369 24.7916 17.4119L24.1499 17.966C24.1888 18.1994 24.2083 18.4424 24.2083 18.6952C24.2083 18.948 24.1888 19.191 24.1499 19.4244L24.7916 19.9785C25.0055 20.1535 25.1319 20.3723 25.1708 20.6348C25.2096 20.8973 25.161 21.1452 25.0249 21.3785L24.7624 21.816C24.6263 22.0299 24.4416 22.1855 24.2083 22.2827C23.9749 22.3799 23.7319 22.3896 23.4791 22.3119L22.6333 22.0494C22.4194 22.2049 22.2103 22.3362 22.0062 22.4431C21.802 22.55 21.5833 22.6521 21.3499 22.7494L21.1749 23.5952C21.1166 23.8674 20.9853 24.0862 20.7812 24.2514C20.577 24.4167 20.3388 24.4994 20.0666 24.4994H19.5999C19.3277 24.4994 19.0895 24.4118 18.8853 24.2368C18.6812 24.0618 18.5499 23.8382 18.4916 23.566ZM19.8333 20.9994C20.4749 20.9994 21.0242 20.7709 21.4812 20.3139C21.9381 19.857 22.1666 19.3077 22.1666 18.666C22.1666 18.0243 21.9381 17.475 21.4812 17.0181C21.0242 16.5612 20.4749 16.3327 19.8333 16.3327C19.1916 16.3327 18.6423 16.5612 18.1853 17.0181C17.7284 17.475 17.4999 18.0243 17.4999 18.666C17.4999 19.3077 17.7284 19.857 18.1853 20.3139C18.6423 20.7709 19.1916 20.9994 19.8333 20.9994ZM11.6666 11.666C12.3083 11.666 12.8576 11.4375 13.3145 10.9806C13.7714 10.5237 13.9999 9.97435 13.9999 9.33268C13.9999 8.69102 13.7714 8.14171 13.3145 7.68477C12.8576 7.22782 12.3083 6.99935 11.6666 6.99935C11.0249 6.99935 10.4756 7.22782 10.0187 7.68477C9.56172 8.14171 9.33325 8.69102 9.33325 9.33268C9.33325 9.97435 9.56172 10.5237 10.0187 10.9806C10.4756 11.4375 11.0249 11.666 11.6666 11.666Z" fill="#009FFF"/>
</g>
</svg>
