<svg width="24" height="24" viewBox="0 0 24 24" fill="none" xmlns="http://www.w3.org/2000/svg">
<path d="M20.475 22.75L16.625 18.9292L15.75 21.5833C15.6528 21.8556 15.4681 21.9868 15.1958 21.9771C14.9236 21.9674 14.7389 21.8264 14.6417 21.5542L11.9875 12.7167C11.9097 12.5028 11.9583 12.3083 12.1333 12.1333C12.3083 11.9583 12.5028 11.9097 12.7167 11.9875L21.5542 14.6417C21.8264 14.7389 21.9674 14.9236 21.9771 15.1958C21.9868 15.4681 21.8556 15.6528 21.5833 15.75L18.9292 16.625L22.7792 20.475C23.1097 20.8056 23.275 21.1847 23.275 21.6125C23.275 22.0403 23.1097 22.4194 22.7792 22.75C22.4486 23.0806 22.0646 23.2458 21.6271 23.2458C21.1896 23.2458 20.8056 23.0806 20.475 22.75ZM11.6667 2.33333C9.06111 2.33333 6.85417 3.2375 5.04583 5.04583C3.2375 6.85417 2.33333 9.06111 2.33333 11.6667C2.33333 14.1167 3.14028 16.2167 4.75417 17.9667C6.36806 19.7167 8.39028 20.7083 10.8208 20.9417C11.1514 20.9806 11.4382 21.1264 11.6812 21.3792C11.9243 21.6319 12.0361 21.9236 12.0167 22.2542C11.9972 22.5847 11.8757 22.8569 11.6521 23.0708C11.4285 23.2847 11.1514 23.3819 10.8208 23.3625C9.30417 23.2653 7.88958 22.8861 6.57708 22.225C5.26458 21.5639 4.11736 20.7035 3.13542 19.6437C2.15347 18.584 1.38542 17.3688 0.83125 15.9979C0.277083 14.6271 0 13.1833 0 11.6667C0 10.0528 0.30625 8.53611 0.91875 7.11667C1.53125 5.69722 2.3625 4.4625 3.4125 3.4125C4.4625 2.3625 5.69722 1.53125 7.11667 0.91875C8.53611 0.30625 10.0528 0 11.6667 0C14.7194 0 17.3785 1.04028 19.6437 3.12083C21.909 5.20139 23.1486 7.76806 23.3625 10.8208C23.4014 11.1319 23.309 11.3993 23.0854 11.6229C22.8618 11.8465 22.5847 11.9681 22.2542 11.9875C21.9236 12.0069 21.6271 11.9 21.3646 11.6667C21.1021 11.4333 20.9514 11.1514 20.9125 10.8208C20.6208 8.4875 19.6049 6.48958 17.8646 4.82708C16.1243 3.16458 14.0583 2.33333 11.6667 2.33333Z" fill="#009FFF"/>
</svg>
