<svg width="28" height="28" viewBox="0 0 28 28" fill="none" xmlns="http://www.w3.org/2000/svg">
<mask id="mask0_243_1215" style="mask-type:alpha" maskUnits="userSpaceOnUse" x="0" y="0" width="28" height="28">
<rect width="28" height="28" fill="#D9D9D9"/>
</mask>
<g mask="url(#mask0_243_1215)">
<path d="M10.325 13.9993L12.0167 12.3077C12.25 12.0743 12.3618 11.8021 12.3521 11.491C12.3424 11.1799 12.2306 10.9077 12.0167 10.6744C11.7833 10.441 11.5062 10.3195 11.1854 10.3098C10.8646 10.3 10.5875 10.4118 10.3542 10.6452L7.81667 13.1827C7.58333 13.416 7.46667 13.6882 7.46667 13.9993C7.46667 14.3105 7.58333 14.5827 7.81667 14.816L10.3542 17.3535C10.5875 17.5869 10.8646 17.6987 11.1854 17.6889C11.5062 17.6792 11.7833 17.5577 12.0167 17.3244C12.2306 17.091 12.3424 16.8188 12.3521 16.5077C12.3618 16.1966 12.25 15.9243 12.0167 15.691L10.325 13.9993ZM17.675 13.9993L15.9833 15.691C15.75 15.9243 15.6382 16.1966 15.6479 16.5077C15.6576 16.8188 15.7694 17.091 15.9833 17.3244C16.2167 17.5577 16.4937 17.6792 16.8146 17.6889C17.1354 17.6987 17.4125 17.5869 17.6458 17.3535L20.1833 14.816C20.4167 14.5827 20.5333 14.3105 20.5333 13.9993C20.5333 13.6882 20.4167 13.416 20.1833 13.1827L17.6458 10.6452C17.4125 10.4118 17.1354 10.3 16.8146 10.3098C16.4937 10.3195 16.2167 10.441 15.9833 10.6744C15.7694 10.9077 15.6576 11.1799 15.6479 11.491C15.6382 11.8021 15.75 12.0743 15.9833 12.3077L17.675 13.9993ZM5.83333 24.4994C5.19167 24.4994 4.64236 24.2709 4.18542 23.8139C3.72847 23.357 3.5 22.8077 3.5 22.166V5.83268C3.5 5.19102 3.72847 4.64171 4.18542 4.18477C4.64236 3.72782 5.19167 3.49935 5.83333 3.49935H10.7333C10.9861 2.79935 11.409 2.23546 12.0021 1.80768C12.5951 1.3799 13.2611 1.16602 14 1.16602C14.7389 1.16602 15.4049 1.3799 15.9979 1.80768C16.591 2.23546 17.0139 2.79935 17.2667 3.49935H22.1667C22.8083 3.49935 23.3576 3.72782 23.8146 4.18477C24.2715 4.64171 24.5 5.19102 24.5 5.83268V22.166C24.5 22.8077 24.2715 23.357 23.8146 23.8139C23.3576 24.2709 22.8083 24.4994 22.1667 24.4994H5.83333ZM5.83333 22.166H22.1667V5.83268H5.83333V22.166ZM14 4.95768C14.2528 4.95768 14.4618 4.87504 14.6271 4.70977C14.7924 4.54449 14.875 4.33546 14.875 4.08268C14.875 3.8299 14.7924 3.62088 14.6271 3.4556C14.4618 3.29032 14.2528 3.20768 14 3.20768C13.7472 3.20768 13.5382 3.29032 13.3729 3.4556C13.2076 3.62088 13.125 3.8299 13.125 4.08268C13.125 4.33546 13.2076 4.54449 13.3729 4.70977C13.5382 4.87504 13.7472 4.95768 14 4.95768Z" fill="#009FFF"/>
</g>
</svg>
