<svg width="28" height="28" viewBox="0 0 28 28" fill="none" xmlns="http://www.w3.org/2000/svg">
<mask id="mask0_243_1225" style="mask-type:alpha" maskUnits="userSpaceOnUse" x="0" y="0" width="28" height="28">
<rect width="28" height="28" fill="#D9D9D9"/>
</mask>
<g mask="url(#mask0_243_1225)">
<path d="M5.59992 12.8333L7.81659 10.6167C8.03047 10.4028 8.13742 10.1306 8.13742 9.8C8.13742 9.46944 8.03047 9.19722 7.81659 8.98333C7.6027 8.76944 7.33047 8.6625 6.99992 8.6625C6.66936 8.6625 6.39714 8.76944 6.18325 8.98333L3.14992 12.0167C2.91659 12.25 2.79992 12.5222 2.79992 12.8333C2.79992 13.1444 2.91659 13.4167 3.14992 13.65L6.18325 16.6833C6.39714 16.8972 6.66936 17.0042 6.99992 17.0042C7.33047 17.0042 7.6027 16.8972 7.81659 16.6833C8.03047 16.4694 8.13742 16.1972 8.13742 15.8667C8.13742 15.5361 8.03047 15.2639 7.81659 15.05L5.59992 12.8333ZM22.3999 12.8333L20.1833 15.05C19.9694 15.2639 19.8624 15.5361 19.8624 15.8667C19.8624 16.1972 19.9694 16.4694 20.1833 16.6833C20.3971 16.8972 20.6694 17.0042 20.9999 17.0042C21.3305 17.0042 21.6027 16.8972 21.8166 16.6833L24.8499 13.65C25.0833 13.4167 25.1999 13.1444 25.1999 12.8333C25.1999 12.5222 25.0833 12.25 24.8499 12.0167L21.8166 8.98333C21.6027 8.76944 21.3305 8.6625 20.9999 8.6625C20.6694 8.6625 20.3971 8.76944 20.1833 8.98333C19.9694 9.19722 19.8624 9.46944 19.8624 9.8C19.8624 10.1306 19.9694 10.4028 20.1833 10.6167L22.3999 12.8333ZM2.33325 7V5.83333C2.33325 5.19167 2.56172 4.64236 3.01867 4.18542C3.47561 3.72847 4.02492 3.5 4.66659 3.5H23.3333C23.9749 3.5 24.5242 3.72847 24.9812 4.18542C25.4381 4.64236 25.6666 5.19167 25.6666 5.83333V7C25.6666 7.33056 25.5548 7.60764 25.3312 7.83125C25.1076 8.05486 24.8305 8.16667 24.4999 8.16667C24.1694 8.16667 23.8923 8.05486 23.6687 7.83125C23.4451 7.60764 23.3333 7.33056 23.3333 7V5.83333H4.66659V7C4.66659 7.33056 4.55478 7.60764 4.33117 7.83125C4.10756 8.05486 3.83047 8.16667 3.49992 8.16667C3.16936 8.16667 2.89228 8.05486 2.66867 7.83125C2.44506 7.60764 2.33325 7.33056 2.33325 7ZM10.4999 24.5C10.1694 24.5 9.89228 24.3882 9.66867 24.1646C9.44506 23.941 9.33325 23.6639 9.33325 23.3333V22.1667H4.66659C4.02492 22.1667 3.47561 21.9382 3.01867 21.4812C2.56172 21.0243 2.33325 20.475 2.33325 19.8333V18.6958C2.33325 18.3653 2.44506 18.0931 2.66867 17.8792C2.89228 17.6653 3.16936 17.5583 3.49992 17.5583C3.83047 17.5583 4.10756 17.6701 4.33117 17.8938C4.55478 18.1174 4.66659 18.3944 4.66659 18.725V19.8333H23.3333V18.6958C23.3333 18.3653 23.4451 18.0931 23.6687 17.8792C23.8923 17.6653 24.1694 17.5583 24.4999 17.5583C24.8305 17.5583 25.1076 17.6701 25.3312 17.8938C25.5548 18.1174 25.6666 18.3944 25.6666 18.725V19.8333C25.6666 20.475 25.4381 21.0243 24.9812 21.4812C24.5242 21.9382 23.9749 22.1667 23.3333 22.1667H18.6666V23.3333C18.6666 23.6639 18.5548 23.941 18.3312 24.1646C18.1076 24.3882 17.8305 24.5 17.4999 24.5H10.4999Z" fill="#009FFF"/>
</g>
</svg>
