<svg width="28" height="28" viewBox="0 0 28 28" fill="none" xmlns="http://www.w3.org/2000/svg">
<mask id="mask0_243_1235" style="mask-type:alpha" maskUnits="userSpaceOnUse" x="0" y="0" width="28" height="28">
<rect width="28" height="28" fill="#D9D9D9"/>
</mask>
<g mask="url(#mask0_243_1235)">
<path d="M17.0586 18.8083L16.2419 17.9917C16.0086 17.7583 15.7315 17.6368 15.4107 17.6271C15.0898 17.6174 14.8127 17.7292 14.5794 17.9625C14.3461 18.1958 14.2294 18.4729 14.2294 18.7938C14.2294 19.1146 14.3461 19.3917 14.5794 19.625L16.2419 21.2875C16.4752 21.5208 16.7475 21.6375 17.0586 21.6375C17.3697 21.6375 17.6419 21.5208 17.8752 21.2875L22.0461 17.1167C22.2794 16.8833 22.3912 16.6111 22.3815 16.3C22.3718 15.9889 22.2502 15.7167 22.0169 15.4833C21.7836 15.2694 21.5114 15.1576 21.2002 15.1479C20.8891 15.1382 20.6169 15.25 20.3836 15.4833L17.0586 18.8083ZM10.0002 18.1667H11.1669C11.4975 18.1667 11.7746 18.0549 11.9982 17.8313C12.2218 17.6076 12.3336 17.3306 12.3336 17C12.3336 16.6694 12.2218 16.3924 11.9982 16.1688C11.7746 15.9451 11.4975 15.8333 11.1669 15.8333H10.0002C9.66969 15.8333 9.39261 15.9451 9.16899 16.1688C8.94538 16.3924 8.83358 16.6694 8.83358 17C8.83358 17.3306 8.94538 17.6076 9.16899 17.8313C9.39261 18.0549 9.66969 18.1667 10.0002 18.1667ZM10.0002 14.6667H15.8336C16.1641 14.6667 16.4412 14.5549 16.6648 14.3313C16.8884 14.1076 17.0002 13.8306 17.0002 13.5C17.0002 13.1694 16.8884 12.8924 16.6648 12.6688C16.4412 12.4451 16.1641 12.3333 15.8336 12.3333H10.0002C9.66969 12.3333 9.39261 12.4451 9.16899 12.6688C8.94538 12.8924 8.83358 13.1694 8.83358 13.5C8.83358 13.8306 8.94538 14.1076 9.16899 14.3313C9.39261 14.5549 9.66969 14.6667 10.0002 14.6667ZM10.0002 11.1667H15.8336C16.1641 11.1667 16.4412 11.0549 16.6648 10.8313C16.8884 10.6076 17.0002 10.3306 17.0002 10C17.0002 9.66944 16.8884 9.39236 16.6648 9.16875C16.4412 8.94514 16.1641 8.83333 15.8336 8.83333H10.0002C9.66969 8.83333 9.39261 8.94514 9.16899 9.16875C8.94538 9.39236 8.83358 9.66944 8.83358 10C8.83358 10.3306 8.94538 10.6076 9.16899 10.8313C9.39261 11.0549 9.66969 11.1667 10.0002 11.1667ZM14.6669 26.3333C13.053 26.3333 11.5364 26.0271 10.1169 25.4146C8.69747 24.8021 7.46274 23.9708 6.41274 22.9208C5.36274 21.8708 4.53149 20.6361 3.91899 19.2167C3.30649 17.7972 3.00024 16.2806 3.00024 14.6667C3.00024 13.0528 3.30649 11.5361 3.91899 10.1167C4.53149 8.69722 5.36274 7.4625 6.41274 6.4125C7.46274 5.3625 8.69747 4.53125 10.1169 3.91875C11.5364 3.30625 13.053 3 14.6669 3C16.2808 3 17.7975 3.30625 19.2169 3.91875C20.6364 4.53125 21.8711 5.3625 22.9211 6.4125C23.9711 7.4625 24.8023 8.69722 25.4148 10.1167C26.0273 11.5361 26.3336 13.0528 26.3336 14.6667C26.3336 16.2806 26.0273 17.7972 25.4148 19.2167C24.8023 20.6361 23.9711 21.8708 22.9211 22.9208C21.8711 23.9708 20.6364 24.8021 19.2169 25.4146C17.7975 26.0271 16.2808 26.3333 14.6669 26.3333ZM14.6669 24C17.2725 24 19.4794 23.0958 21.2877 21.2875C23.0961 19.4792 24.0002 17.2722 24.0002 14.6667C24.0002 12.0611 23.0961 9.85417 21.2877 8.04583C19.4794 6.2375 17.2725 5.33333 14.6669 5.33333C12.0614 5.33333 9.85441 6.2375 8.04608 8.04583C6.23774 9.85417 5.33358 12.0611 5.33358 14.6667C5.33358 17.2722 6.23774 19.4792 8.04608 21.2875C9.85441 23.0958 12.0614 24 14.6669 24Z" fill="#009FFF"/>
</g>
</svg>
