<svg width="28" height="28" viewBox="0 0 28 28" fill="none" xmlns="http://www.w3.org/2000/svg">
<mask id="mask0_243_1185" style="mask-type:alpha" maskUnits="userSpaceOnUse" x="0" y="0" width="28" height="28">
<rect width="28" height="28" fill="#D9D9D9"/>
</mask>
<g mask="url(#mask0_243_1185)">
<path d="M11.6667 17.4991C11.3362 17.4991 11.0591 17.3873 10.8355 17.1637C10.6119 16.9401 10.5001 16.663 10.5001 16.3324V11.6658C10.5001 11.3352 10.6119 11.0581 10.8355 10.8345C11.0591 10.6109 11.3362 10.4991 11.6667 10.4991C11.9973 10.4991 12.2744 10.6109 12.498 10.8345C12.7216 11.0581 12.8334 11.3352 12.8334 11.6658V16.3324C12.8334 16.663 12.7216 16.9401 12.498 17.1637C12.2744 17.3873 11.9973 17.4991 11.6667 17.4991ZM16.3334 17.4991C16.0029 17.4991 15.7258 17.3873 15.5022 17.1637C15.2786 16.9401 15.1667 16.663 15.1667 16.3324V11.6658C15.1667 11.3352 15.2786 11.0581 15.5022 10.8345C15.7258 10.6109 16.0029 10.4991 16.3334 10.4991C16.664 10.4991 16.9411 10.6109 17.1647 10.8345C17.3883 11.0581 17.5001 11.3352 17.5001 11.6658V16.3324C17.5001 16.663 17.3883 16.9401 17.1647 17.1637C16.9411 17.3873 16.664 17.4991 16.3334 17.4991ZM14.0001 26.8324C11.9001 26.8324 9.93133 26.3512 8.09383 25.3887C6.25633 24.4262 4.72508 23.0797 3.50008 21.3491V23.3324C3.50008 23.663 3.38828 23.9401 3.16466 24.1637C2.94105 24.3873 2.66397 24.4991 2.33341 24.4991C2.00286 24.4991 1.72578 24.3873 1.50216 24.1637C1.27855 23.9401 1.16675 23.663 1.16675 23.3324V18.6658C1.16675 18.3352 1.27855 18.0581 1.50216 17.8345C1.72578 17.6109 2.00286 17.4991 2.33341 17.4991H7.00008C7.33064 17.4991 7.60772 17.6109 7.83133 17.8345C8.05494 18.0581 8.16675 18.3352 8.16675 18.6658C8.16675 18.9963 8.05494 19.2734 7.83133 19.497C7.60772 19.7206 7.33064 19.8324 7.00008 19.8324H5.30841C6.30008 21.2908 7.55911 22.4331 9.0855 23.2595C10.6119 24.0859 12.2501 24.4991 14.0001 24.4991C16.0223 24.4991 17.8695 23.9741 19.5417 22.9241C21.214 21.8741 22.4973 20.4644 23.3917 18.6949C23.5667 18.3644 23.7952 18.1019 24.0772 17.9074C24.3591 17.713 24.6848 17.6547 25.0542 17.7324C25.4042 17.8102 25.6327 18.0095 25.7397 18.3303C25.8466 18.6512 25.8126 18.9963 25.6376 19.3658C24.5876 21.6213 23.0223 23.4297 20.9417 24.7908C18.8612 26.1519 16.5473 26.8324 14.0001 26.8324ZM2.42091 12.8324C2.09036 12.8324 1.823 12.7109 1.61883 12.4678C1.41466 12.2248 1.34175 11.938 1.40008 11.6074C1.59453 10.6935 1.8473 9.85257 2.15841 9.08452C2.46953 8.31646 2.88758 7.54354 3.41258 6.76577C3.60703 6.4741 3.8598 6.30882 4.17091 6.26993C4.48203 6.23104 4.76397 6.33799 5.01675 6.59076C5.28897 6.86299 5.42508 7.15952 5.42508 7.48035C5.42508 7.80118 5.31814 8.12688 5.10425 8.45743C4.77369 8.96299 4.51119 9.46854 4.31675 9.9741C4.1223 10.4797 3.9473 11.0338 3.79175 11.6366C3.71397 11.9866 3.55355 12.2734 3.3105 12.497C3.06744 12.7206 2.77091 12.8324 2.42091 12.8324ZM8.48758 5.10327C8.17647 5.31715 7.8605 5.41438 7.53966 5.39493C7.21883 5.37549 6.9223 5.22965 6.65008 4.95743C6.41675 4.7241 6.31466 4.45674 6.34383 4.15535C6.373 3.85396 6.52369 3.59632 6.79591 3.38243C7.55425 2.87688 8.30772 2.46368 9.05633 2.14285C9.80494 1.82202 10.6362 1.5741 11.5501 1.3991C11.9001 1.34077 12.2015 1.40882 12.4542 1.60327C12.707 1.79771 12.8334 2.06021 12.8334 2.39077C12.8334 2.76021 12.7216 3.0616 12.498 3.29493C12.2744 3.52827 11.9779 3.68382 11.6084 3.7616C11.0251 3.89771 10.4855 4.07271 9.98966 4.2866C9.49383 4.50049 8.99314 4.77271 8.48758 5.10327ZM19.5417 5.0741C19.0362 4.74354 18.5306 4.48104 18.0251 4.2866C17.5195 4.09215 16.9654 3.91715 16.3626 3.7616C16.0126 3.68382 15.7258 3.5234 15.5022 3.28035C15.2786 3.03729 15.1667 2.74077 15.1667 2.39077C15.1667 2.06021 15.2883 1.79771 15.5313 1.60327C15.7744 1.40882 16.0612 1.34077 16.3917 1.3991C17.3251 1.5741 18.1709 1.81715 18.9292 2.12827C19.6876 2.43938 20.4556 2.85743 21.2334 3.38243C21.5056 3.57688 21.6612 3.82965 21.7001 4.14077C21.739 4.45188 21.6417 4.7241 21.4084 4.95743C21.1362 5.22965 20.8348 5.37063 20.5042 5.38035C20.1737 5.39007 19.8529 5.28799 19.5417 5.0741ZM25.6084 12.8324C25.239 12.8324 24.9376 12.7206 24.7042 12.497C24.4709 12.2734 24.3154 11.9769 24.2376 11.6074C24.082 11.0047 23.9022 10.4553 23.698 9.95952C23.4938 9.46368 23.2265 8.95327 22.8959 8.42827C22.682 8.11715 22.5848 7.80118 22.6042 7.48035C22.6237 7.15952 22.7695 6.86299 23.0417 6.59076C23.2751 6.35743 23.5424 6.26021 23.8438 6.2991C24.1452 6.33799 24.4029 6.49354 24.6167 6.76577C25.1417 7.54354 25.5598 8.3116 25.8709 9.06993C26.182 9.82827 26.4251 10.6741 26.6001 11.6074C26.6584 11.938 26.5904 12.2248 26.3959 12.4678C26.2015 12.7109 25.939 12.8324 25.6084 12.8324Z" fill="#009FFF"/>
</g>
</svg>
