<svg width="28" height="28" viewBox="0 0 28 28" fill="none" xmlns="http://www.w3.org/2000/svg">
<mask id="mask0_243_1175" style="mask-type:alpha" maskUnits="userSpaceOnUse" x="0" y="0" width="28" height="28">
<rect width="28" height="28" fill="#D9D9D9"/>
</mask>
<g mask="url(#mask0_243_1175)">
<path d="M4.66659 23.3327C4.02492 23.3327 3.47561 23.1042 3.01867 22.6473C2.56172 22.1903 2.33325 21.641 2.33325 20.9993V6.99935C2.33325 6.35768 2.56172 5.80838 3.01867 5.35143C3.47561 4.89449 4.02492 4.66602 4.66659 4.66602H23.3333C23.9749 4.66602 24.5242 4.89449 24.9812 5.35143C25.4381 5.80838 25.6666 6.35768 25.6666 6.99935V20.9993C25.6666 21.641 25.4381 22.1903 24.9812 22.6473C24.5242 23.1042 23.9749 23.3327 23.3333 23.3327H4.66659ZM4.66659 20.9993H23.3333V9.33268H4.66659V20.9993ZM10.1208 15.166L7.90409 12.9493C7.67075 12.716 7.55895 12.4438 7.56867 12.1327C7.57839 11.8216 7.69992 11.5493 7.93325 11.316C8.16659 11.1021 8.43881 10.9903 8.74992 10.9806C9.06103 10.9709 9.33325 11.0827 9.56659 11.316L12.5999 14.3493C12.8333 14.5827 12.9499 14.8549 12.9499 15.166C12.9499 15.4771 12.8333 15.7493 12.5999 15.9827L9.56659 19.016C9.3527 19.2299 9.08534 19.3417 8.7645 19.3514C8.44367 19.3612 8.16659 19.2493 7.93325 19.016C7.71936 18.8021 7.61242 18.5299 7.61242 18.1993C7.61242 17.8688 7.71936 17.5966 7.93325 17.3827L10.1208 15.166ZM15.1666 19.8327C14.836 19.8327 14.5589 19.7209 14.3353 19.4973C14.1117 19.2737 13.9999 18.9966 13.9999 18.666C13.9999 18.3355 14.1117 18.0584 14.3353 17.8348C14.5589 17.6112 14.836 17.4993 15.1666 17.4993H19.8333C20.1638 17.4993 20.4409 17.6112 20.6645 17.8348C20.8881 18.0584 20.9999 18.3355 20.9999 18.666C20.9999 18.9966 20.8881 19.2737 20.6645 19.4973C20.4409 19.7209 20.1638 19.8327 19.8333 19.8327H15.1666Z" fill="#009FFF"/>
</g>
</svg>
