<svg width="28" height="28" viewBox="0 0 28 28" fill="none" xmlns="http://www.w3.org/2000/svg">
<mask id="mask0_243_1195" style="mask-type:alpha" maskUnits="userSpaceOnUse" x="0" y="0" width="28" height="28">
<rect width="28" height="28" fill="#D9D9D9"/>
</mask>
<g mask="url(#mask0_243_1195)">
<path d="M6.99992 21.0007L4.31659 23.684C3.94714 24.0534 3.52422 24.1361 3.04784 23.9319C2.57145 23.7277 2.33325 23.3632 2.33325 22.8382V4.66732C2.33325 4.02565 2.56172 3.47635 3.01867 3.0194C3.47561 2.56246 4.02492 2.33398 4.66659 2.33398H23.3333C23.9749 2.33398 24.5242 2.56246 24.9812 3.0194C25.4381 3.47635 25.6666 4.02565 25.6666 4.66732V18.6673C25.6666 19.309 25.4381 19.8583 24.9812 20.3152C24.5242 20.7722 23.9749 21.0007 23.3333 21.0007H6.99992ZM6.00825 18.6673H23.3333V4.66732H4.66659V19.9798L6.00825 18.6673ZM8.16659 16.334H15.1666C15.4971 16.334 15.7742 16.2222 15.9978 15.9986C16.2214 15.775 16.3333 15.4979 16.3333 15.1673C16.3333 14.8368 16.2214 14.5597 15.9978 14.3361C15.7742 14.1125 15.4971 14.0007 15.1666 14.0007H8.16659C7.83603 14.0007 7.55895 14.1125 7.33534 14.3361C7.11172 14.5597 6.99992 14.8368 6.99992 15.1673C6.99992 15.4979 7.11172 15.775 7.33534 15.9986C7.55895 16.2222 7.83603 16.334 8.16659 16.334ZM8.16659 12.834H19.8333C20.1638 12.834 20.4409 12.7222 20.6645 12.4986C20.8881 12.275 20.9999 11.9979 20.9999 11.6673C20.9999 11.3368 20.8881 11.0597 20.6645 10.8361C20.4409 10.6125 20.1638 10.5007 19.8333 10.5007H8.16659C7.83603 10.5007 7.55895 10.6125 7.33534 10.8361C7.11172 11.0597 6.99992 11.3368 6.99992 11.6673C6.99992 11.9979 7.11172 12.275 7.33534 12.4986C7.55895 12.7222 7.83603 12.834 8.16659 12.834ZM8.16659 9.33398H19.8333C20.1638 9.33398 20.4409 9.22218 20.6645 8.99857C20.8881 8.77496 20.9999 8.49787 20.9999 8.16732C20.9999 7.83676 20.8881 7.55968 20.6645 7.33607C20.4409 7.11246 20.1638 7.00065 19.8333 7.00065H8.16659C7.83603 7.00065 7.55895 7.11246 7.33534 7.33607C7.11172 7.55968 6.99992 7.83676 6.99992 8.16732C6.99992 8.49787 7.11172 8.77496 7.33534 8.99857C7.55895 9.22218 7.83603 9.33398 8.16659 9.33398Z" fill="#009FFF"/>
</g>
</svg>
