<svg width="64" height="64" viewBox="0 0 64 64" fill="none" xmlns="http://www.w3.org/2000/svg">
<mask id="mask0_11_707" style="mask-type:alpha" maskUnits="userSpaceOnUse" x="12" y="12" width="40" height="40">
<rect x="12" y="12" width="40" height="40" fill="#D9D9D9"/>
</mask>
<g mask="url(#mask0_11_707)">
<path d="M19.2921 31.9583L26.3337 39C26.6023 39.2686 26.7319 39.5926 26.7225 39.9721C26.7133 40.3518 26.5744 40.676 26.3058 40.9446C26.0375 41.2129 25.7089 41.3471 25.32 41.3471C24.9311 41.3471 24.6023 41.2129 24.3337 40.9446L16.3058 32.9167C16.1578 32.7686 16.0536 32.6158 15.9933 32.4583C15.9333 32.3008 15.9033 32.1296 15.9033 31.9446C15.9033 31.7593 15.9333 31.5879 15.9933 31.4304C16.0536 31.2732 16.1578 31.1204 16.3058 30.9721L24.4171 22.8612C24.6948 22.5835 25.0258 22.4446 25.41 22.4446C25.7944 22.4446 26.1255 22.5835 26.4033 22.8612C26.6811 23.139 26.82 23.47 26.82 23.8542C26.82 24.2383 26.6811 24.5693 26.4033 24.8471L19.2921 31.9583ZM44.7087 31.9304L37.6671 24.8887C37.3985 24.6204 37.2689 24.2964 37.2783 23.9167C37.2875 23.5369 37.4264 23.2129 37.695 22.9446C37.9633 22.676 38.2919 22.5417 38.6808 22.5417C39.0697 22.5417 39.3985 22.676 39.6671 22.9446L47.695 30.9721C47.843 31.1204 47.9472 31.2732 48.0075 31.4304C48.0675 31.5879 48.0975 31.7593 48.0975 31.9446C48.0975 32.1296 48.0675 32.3008 48.0075 32.4583C47.9472 32.6158 47.843 32.7686 47.695 32.9167L39.5837 41.0279C39.306 41.3057 38.9819 41.4376 38.6117 41.4237C38.2411 41.4099 37.9169 41.264 37.6392 40.9862C37.3614 40.7085 37.2225 40.3774 37.2225 39.9929C37.2225 39.6087 37.3614 39.2778 37.6392 39L44.7087 31.9304Z" fill="#009FFF"/>
</g>
<rect width="64" height="64" fill="#009FFF" fill-opacity="0.1"/>
</svg>
