<svg width="28" height="28" viewBox="0 0 28 28" fill="none" xmlns="http://www.w3.org/2000/svg">
<mask id="mask0_301_2782" style="mask-type:alpha" maskUnits="userSpaceOnUse" x="0" y="0" width="28" height="28">
<rect width="28" height="28" fill="#D9D9D9"/>
</mask>
<g mask="url(#mask0_301_2782)">
<path d="M5.62813 14.0292L10.149 18.55C10.3628 18.7639 10.4698 19.0361 10.4698 19.3667C10.4698 19.6972 10.3628 19.9695 10.149 20.1833C9.93507 20.3972 9.66285 20.5042 9.33229 20.5042C9.00174 20.5042 8.72951 20.3972 8.51562 20.1833L3.14896 14.8167C3.03229 14.7 2.94965 14.5736 2.90104 14.4375C2.85243 14.3014 2.82812 14.1556 2.82812 14C2.82812 13.8445 2.85243 13.6986 2.90104 13.5625C2.94965 13.4264 3.03229 13.3 3.14896 13.1833L8.51562 7.81667C8.74896 7.58334 9.02604 7.46667 9.34687 7.46667C9.66771 7.46667 9.94479 7.58334 10.1781 7.81667C10.4115 8.05001 10.5281 8.32709 10.5281 8.64792C10.5281 8.96876 10.4115 9.24584 10.1781 9.47917L5.62813 14.0292ZM22.3698 13.9708L17.849 9.45001C17.6351 9.23612 17.5281 8.9639 17.5281 8.63334C17.5281 8.30279 17.6351 8.03056 17.849 7.81667C18.0628 7.60279 18.3351 7.49584 18.6656 7.49584C18.9962 7.49584 19.2684 7.60279 19.4823 7.81667L24.849 13.1833C24.9656 13.3 25.0483 13.4264 25.0969 13.5625C25.1455 13.6986 25.1698 13.8445 25.1698 14C25.1698 14.1556 25.1455 14.3014 25.0969 14.4375C25.0483 14.5736 24.9656 14.7 24.849 14.8167L19.4823 20.1833C19.249 20.4167 18.9767 20.5285 18.6656 20.5188C18.3545 20.509 18.0823 20.3875 17.849 20.1542C17.6156 19.9208 17.499 19.6438 17.499 19.3229C17.499 19.0021 17.6156 18.725 17.849 18.4917L22.3698 13.9708Z" fill="#009FFF"/>
</g>
</svg>
