<svg width="28" height="28" viewBox="0 0 28 28" fill="none" xmlns="http://www.w3.org/2000/svg">
<mask id="mask0_3506_3519" style="mask-type:alpha" maskUnits="userSpaceOnUse" x="0" y="0" width="28" height="28">
<rect width="28" height="28" fill="#D9D9D9"/>
</mask>
<g mask="url(#mask0_3506_3519)">
<path d="M3.49967 24.5C3.16912 24.5 2.89204 24.3882 2.66842 24.1646C2.44481 23.941 2.33301 23.6639 2.33301 23.3333C2.33301 23.0028 2.44481 22.7257 2.66842 22.5021C2.89204 22.2785 3.16912 22.1667 3.49967 22.1667H24.4997C24.8302 22.1667 25.1073 22.2785 25.3309 22.5021C25.5545 22.7257 25.6663 23.0028 25.6663 23.3333C25.6663 23.6639 25.5545 23.941 25.3309 24.1646C25.1073 24.3882 24.8302 24.5 24.4997 24.5H3.49967ZM5.24967 21C4.76356 21 4.35037 20.8299 4.01009 20.4896C3.66981 20.1493 3.49967 19.7361 3.49967 19.25V14.5833C3.49967 14.0972 3.66981 13.684 4.01009 13.3438C4.35037 13.0035 4.76356 12.8333 5.24967 12.8333C5.73579 12.8333 6.14898 13.0035 6.48926 13.3438C6.82954 13.684 6.99967 14.0972 6.99967 14.5833V19.25C6.99967 19.7361 6.82954 20.1493 6.48926 20.4896C6.14898 20.8299 5.73579 21 5.24967 21ZM11.083 21C10.5969 21 10.1837 20.8299 9.84342 20.4896C9.50315 20.1493 9.33301 19.7361 9.33301 19.25V8.75C9.33301 8.26389 9.50315 7.85069 9.84342 7.51042C10.1837 7.17014 10.5969 7 11.083 7C11.5691 7 11.9823 7.17014 12.3226 7.51042C12.6629 7.85069 12.833 8.26389 12.833 8.75V19.25C12.833 19.7361 12.6629 20.1493 12.3226 20.4896C11.9823 20.8299 11.5691 21 11.083 21ZM16.9163 21C16.4302 21 16.017 20.8299 15.6768 20.4896C15.3365 20.1493 15.1663 19.7361 15.1663 19.25V12.25C15.1663 11.7639 15.3365 11.3507 15.6768 11.0104C16.017 10.6701 16.4302 10.5 16.9163 10.5C17.4025 10.5 17.8156 10.6701 18.1559 11.0104C18.4962 11.3507 18.6663 11.7639 18.6663 12.25V19.25C18.6663 19.7361 18.4962 20.1493 18.1559 20.4896C17.8156 20.8299 17.4025 21 16.9163 21ZM22.7497 21C22.2636 21 21.8504 20.8299 21.5101 20.4896C21.1698 20.1493 20.9997 19.7361 20.9997 19.25V5.25C20.9997 4.76389 21.1698 4.35069 21.5101 4.01042C21.8504 3.67014 22.2636 3.5 22.7497 3.5C23.2358 3.5 23.649 3.67014 23.9893 4.01042C24.3295 4.35069 24.4997 4.76389 24.4997 5.25V19.25C24.4997 19.7361 24.3295 20.1493 23.9893 20.4896C23.649 20.8299 23.2358 21 22.7497 21Z" fill="#009FFF"/>
</g>
</svg>
