<svg width="28" height="28" viewBox="0 0 28 28" fill="none" xmlns="http://www.w3.org/2000/svg">
<mask id="mask0_3143_2969" style="mask-type:alpha" maskUnits="userSpaceOnUse" x="0" y="0" width="28" height="28">
<rect width="28" height="28" fill="#D9D9D9"/>
</mask>
<g mask="url(#mask0_3143_2969)">
<path d="M7 20.6502C5.89167 19.6391 5.03125 18.4578 4.41875 17.1064C3.80625 15.755 3.5 14.3307 3.5 12.8335C3.5 9.91683 4.52083 7.43766 6.5625 5.396C8.60417 3.35433 11.0833 2.3335 14 2.3335C16.4306 2.3335 18.584 3.04808 20.4604 4.47725C22.3368 5.90641 23.5569 7.76822 24.1208 10.0627L25.6958 16.2947C25.78 16.5992 25.7249 16.8763 25.5305 17.126C25.336 17.3754 25.0768 17.5002 24.7529 17.5002H22.1667V21.389C22.1667 21.9237 21.9763 22.3815 21.5956 22.7624C21.2147 23.1431 20.7568 23.3335 20.2221 23.3335H17.5V24.6947C17.5 24.97 17.4065 25.2009 17.2194 25.3874C17.0326 25.5737 16.8009 25.6668 16.5244 25.6668C16.2479 25.6668 16.0173 25.5737 15.8325 25.3874C15.6478 25.2009 15.5555 24.97 15.5555 24.6947V22.3614C15.5555 22.0858 15.6487 21.8549 15.8352 21.6687C16.0214 21.4822 16.2523 21.389 16.5279 21.389H20.2221V16.528C20.2221 16.2525 20.3154 16.0216 20.5018 15.8353C20.6881 15.6489 20.919 15.5556 21.1945 15.5556H23.4888L22.2445 10.5489C21.7843 8.70165 20.7861 7.1947 19.25 6.02804C17.7139 4.86137 15.9639 4.27804 14 4.27804C11.6278 4.27804 9.60876 5.10112 7.94296 6.74729C6.27735 8.39365 5.44454 10.3999 5.44454 12.7661C5.44454 13.9902 5.6945 15.1529 6.19442 16.2545C6.69453 17.356 7.40376 18.3351 8.32212 19.1918L8.94454 19.7752V24.6947C8.94454 24.97 8.85101 25.2009 8.66396 25.3874C8.4769 25.5737 8.24522 25.6668 7.96892 25.6668C7.69242 25.6668 7.46181 25.5737 7.27708 25.3874C7.09236 25.2009 7 24.97 7 24.6947V20.6502ZM14 18.6668C14.3306 18.6668 14.6076 18.555 14.8313 18.3314C15.0549 18.1078 15.1667 17.8307 15.1667 17.5002C15.1667 17.1696 15.0549 16.8925 14.8313 16.6689C14.6076 16.4453 14.3306 16.3335 14 16.3335C13.6694 16.3335 13.3924 16.4453 13.1688 16.6689C12.9451 16.8925 12.8333 17.1696 12.8333 17.5002C12.8333 17.8307 12.9451 18.1078 13.1688 18.3314C13.3924 18.555 13.6694 18.6668 14 18.6668ZM14.0875 8.66266C14.5153 8.66266 14.8701 8.77933 15.1521 9.01266C15.434 9.246 15.575 9.54739 15.575 9.91683C15.575 10.2279 15.4924 10.5245 15.3271 10.8064C15.1618 11.0884 14.8361 11.4821 14.35 11.9877C13.9806 12.3766 13.7132 12.7217 13.5479 13.0231C13.3826 13.3245 13.2708 13.6696 13.2125 14.0585C13.1736 14.2918 13.2368 14.496 13.4021 14.671C13.5674 14.846 13.7764 14.9335 14.0292 14.9335C14.2431 14.9335 14.4424 14.8606 14.6271 14.7147C14.8118 14.5689 14.9333 14.3696 14.9917 14.1168C15.05 13.8835 15.1424 13.655 15.2688 13.4314C15.3951 13.2078 15.5944 12.9502 15.8667 12.6585C16.4889 11.9779 16.8972 11.4627 17.0917 11.1127C17.2861 10.7627 17.3833 10.3641 17.3833 9.91683C17.3833 9.10016 17.0674 8.40989 16.4354 7.846C15.8035 7.28211 15.0208 7.00016 14.0875 7.00016C13.4839 7.00016 12.9133 7.14114 12.3757 7.42308C11.8383 7.70502 11.4043 8.09557 11.0737 8.5947C10.931 8.80198 10.9034 9.02559 10.9909 9.26554C11.0784 9.50529 11.2324 9.67377 11.4529 9.771C11.6732 9.86822 11.8854 9.8828 12.0896 9.81475C12.2938 9.74669 12.4736 9.60572 12.6292 9.39183C12.8236 9.1585 13.0472 8.97864 13.3 8.85225C13.5528 8.72586 13.8153 8.66266 14.0875 8.66266Z" fill="#009FFF"/>
</g>
</svg>
