<svg xmlns="http://www.w3.org/2000/svg" width="28" height="28" viewBox="0 0 28 28" fill="none">
  <path d="M18.6585 24.4907V22.1584C18.6585 20.9212 18.1671 19.7347 17.2923 18.8599C16.4175 17.9851 15.231 17.4937 13.9938 17.4937H6.99675C5.75959 17.4937 4.5731 17.9851 3.6983 18.8599C2.82349 19.7347 2.33203 20.9212 2.33203 22.1584V24.4907" stroke="#4F46E5" stroke-width="2.3325" stroke-linecap="round" stroke-linejoin="round"/>
  <path d="M18.6602 3.64807C19.6605 3.90739 20.5463 4.49153 21.1787 5.30878C21.8111 6.12604 22.1543 7.13015 22.1543 8.16352C22.1543 9.19688 21.8111 10.201 21.1787 11.0183C20.5463 11.8355 19.6605 12.4196 18.6602 12.679" stroke="#4F46E5" stroke-width="2.3325" stroke-linecap="round" stroke-linejoin="round"/>
  <path d="M25.6577 24.4907V22.1584C25.6569 21.1248 25.3129 20.1208 24.6797 19.3039C24.0465 18.4871 23.1599 17.9037 22.1592 17.6453" stroke="#4F46E5" stroke-width="2.3325" stroke-linecap="round" stroke-linejoin="round"/>
  <path d="M10.4958 12.8282C13.072 12.8282 15.1605 10.7397 15.1605 8.1635C15.1605 5.58724 13.072 3.49878 10.4958 3.49878C7.91952 3.49878 5.83105 5.58724 5.83105 8.1635C5.83105 10.7397 7.91952 12.8282 10.4958 12.8282Z" stroke="#4F46E5" stroke-width="2.3325" stroke-linecap="round" stroke-linejoin="round"/>
</svg>
