<svg xmlns="http://www.w3.org/2000/svg" width="56" height="52" viewBox="0 0 56 52" fill="none">
  <path d="M37.0837 46.9072V9.57389C37.0837 8.33622 36.592 7.14923 35.7168 6.27406C34.8417 5.39889 33.6547 4.90723 32.417 4.90723H23.0837C21.846 4.90723 20.659 5.39889 19.7838 6.27406C18.9087 7.14923 18.417 8.33622 18.417 9.57389V46.9072" stroke="white" stroke-width="4.66667" stroke-linecap="round" stroke-linejoin="round"/>
  <path d="M46.417 14.2402H9.08366C6.50633 14.2402 4.41699 16.3296 4.41699 18.9069V42.2402C4.41699 44.8176 6.50633 46.9069 9.08366 46.9069H46.417C48.9943 46.9069 51.0837 44.8176 51.0837 42.2402V18.9069C51.0837 16.3296 48.9943 14.2402 46.417 14.2402Z" stroke="white" stroke-width="4.66667" stroke-linecap="round" stroke-linejoin="round"/>
</svg>
