<svg width="40" height="40" viewBox="0 0 40 40" fill="none" xmlns="http://www.w3.org/2000/svg">
<mask id="mask0_3_9042" style="mask-type:alpha" maskUnits="userSpaceOnUse" x="0" y="0" width="40" height="40">
<rect width="40" height="40" fill="#D9D9D9"/>
</mask>
<g mask="url(#mask0_3_9042)">
<path d="M38.3337 7.77792V32.2221C38.3337 32.986 38.0617 33.64 37.5178 34.1842C36.9737 34.7281 36.3196 35 35.5557 35H28.6391C28.2457 35 27.9159 34.8664 27.6495 34.5992C27.3834 34.3322 27.2503 34.0013 27.2503 33.6063C27.2503 33.2113 27.3834 32.8818 27.6495 32.6179C27.9159 32.354 28.2457 32.2221 28.6391 32.2221H35.5557V7.77792H19.5837V10C19.5837 10.3936 19.45 10.7235 19.1828 10.9896C18.9159 11.2557 18.5849 11.3888 18.1899 11.3888C17.7949 11.3888 17.4655 11.2557 17.2016 10.9896C16.9377 10.7235 16.8057 10.3936 16.8057 10V7.75C16.8057 6.99778 17.076 6.35139 17.6166 5.81083C18.1574 5.27028 18.8038 5 19.5557 5H35.5557C36.3196 5 36.9737 5.27195 37.5178 5.81583C38.0617 6.36 38.3337 7.01403 38.3337 7.77792ZM1.66699 20.0417C1.66699 19.5972 1.7688 19.1713 1.97241 18.7638C2.1763 18.3565 2.46338 18.0279 2.83366 17.7779L11.4724 11.5971C11.7288 11.4146 11.991 11.2833 12.2591 11.2033C12.5271 11.1233 12.801 11.0833 13.0807 11.0833C13.3605 11.0833 13.635 11.1233 13.9045 11.2033C14.1737 11.2833 14.4371 11.4146 14.6949 11.5971L23.3057 17.7779C23.6763 18.0279 23.9634 18.3565 24.167 18.7638C24.3706 19.1713 24.4724 19.5972 24.4724 20.0417V32.2221C24.4724 32.986 24.2005 33.64 23.6566 34.1842C23.1127 34.7281 22.4588 35 21.6949 35H17.8891C17.1252 35 16.4713 34.7281 15.9274 34.1842C15.3835 33.64 15.1116 32.986 15.1116 32.2221V26.6387H11.0557V32.2221C11.0557 32.986 10.7838 33.64 10.2399 34.1842C9.69602 34.7281 9.04213 35 8.27824 35H4.44491C3.68102 35 3.02699 34.7281 2.48283 34.1842C1.93894 33.64 1.66699 32.986 1.66699 32.2221V20.0417ZM4.44491 20.0396V32.2221H8.27824V26.6387C8.27824 25.8749 8.55019 25.221 9.09408 24.6771C9.63796 24.1332 10.2919 23.8613 11.0557 23.8613H15.1116C15.8755 23.8613 16.5294 24.1332 17.0732 24.6771C17.6171 25.221 17.8891 25.8749 17.8891 26.6387V32.2221H21.6949V20.0396L13.0837 13.8612L4.44491 20.0396ZM29.5003 14.3612H30.8891C31.0744 14.3612 31.2364 14.2918 31.3753 14.1529C31.5142 14.014 31.5837 13.8519 31.5837 13.6667V12.2779C31.5837 12.0926 31.5142 11.9306 31.3753 11.7917C31.2364 11.6528 31.0744 11.5833 30.8891 11.5833H29.5003C29.315 11.5833 29.153 11.6528 29.0141 11.7917C28.8752 11.9306 28.8057 12.0926 28.8057 12.2779V13.6667C28.8057 13.8519 28.8752 14.014 29.0141 14.1529C29.153 14.2918 29.315 14.3612 29.5003 14.3612ZM29.5003 21.3333H30.8891C31.0744 21.3333 31.2364 21.2639 31.3753 21.125C31.5142 20.9861 31.5837 20.824 31.5837 20.6388V19.25C31.5837 19.0647 31.5142 18.9026 31.3753 18.7638C31.2364 18.6249 31.0744 18.5554 30.8891 18.5554H29.5003C29.315 18.5554 29.153 18.6249 29.0141 18.7638C28.8752 18.9026 28.8057 19.0647 28.8057 19.25V20.6388C28.8057 20.824 28.8752 20.9861 29.0141 21.125C29.153 21.2639 29.315 21.3333 29.5003 21.3333ZM29.5003 28.2779H30.8891C31.0744 28.2779 31.2364 28.2085 31.3753 28.0696C31.5142 27.9307 31.5837 27.7686 31.5837 27.5833V26.1946C31.5837 26.0093 31.5142 25.8472 31.3753 25.7083C31.2364 25.5694 31.0744 25.5 30.8891 25.5H29.5003C29.315 25.5 29.153 25.5694 29.0141 25.7083C28.8752 25.8472 28.8057 26.0093 28.8057 26.1946V27.5833C28.8057 27.7686 28.8752 27.9307 29.0141 28.0696C29.153 28.2085 29.315 28.2779 29.5003 28.2779Z" fill="#009FFF"/>
</g>
</svg>
