<svg width="40" height="40" viewBox="0 0 40 40" fill="none" xmlns="http://www.w3.org/2000/svg">
<mask id="mask0_3_9049" style="mask-type:alpha" maskUnits="userSpaceOnUse" x="0" y="0" width="40" height="40">
<rect width="40" height="40" fill="#D9D9D9"/>
</mask>
<g mask="url(#mask0_3_9049)">
<path d="M32.5833 35.8333L27.0833 30.375L25.6946 34.5833C25.574 34.9167 25.3471 35.0764 25.0138 35.0625C24.6804 35.0486 24.4629 34.875 24.3612 34.5417L20.375 21.25C20.3008 21 20.3657 20.7732 20.5696 20.5696C20.7732 20.3657 21 20.3008 21.25 20.375L34.5417 24.3613C34.875 24.4629 35.0486 24.6804 35.0625 25.0138C35.0764 25.3471 34.9167 25.574 34.5833 25.6946L30.375 27.0833L35.875 32.5833C36.3472 33.0556 36.5833 33.5972 36.5833 34.2083C36.5833 34.8194 36.3472 35.3611 35.875 35.8333C35.4028 36.3056 34.8542 36.5417 34.2292 36.5417C33.6042 36.5417 33.0556 36.3056 32.5833 35.8333ZM10 20C10 17.2222 10.9722 14.8611 12.9167 12.9167C14.8611 10.9722 17.2222 10 20 10C22.2131 10 24.169 10.6274 25.8679 11.8821C27.5671 13.1365 28.7593 14.7546 29.4446 16.7362C29.574 17.1065 29.5578 17.4629 29.3958 17.8054C29.2339 18.1482 28.9676 18.3843 28.5971 18.5138C28.2268 18.6435 27.8726 18.6226 27.5346 18.4513C27.1968 18.2801 26.9631 18.0093 26.8333 17.6388C26.3611 16.2221 25.5046 15.0578 24.2638 14.1458C23.0232 13.2339 21.6019 12.7779 20 12.7779C18 12.7779 16.2962 13.4815 14.8887 14.8888C13.4815 16.2963 12.7779 18 12.7779 20C12.7779 21.5833 13.2339 23 14.1458 24.25C15.0578 25.5 16.2221 26.3611 17.6387 26.8333C18.0093 26.9631 18.2801 27.1992 18.4513 27.5417C18.6226 27.8842 18.6435 28.2407 18.5138 28.6113C18.3843 28.9815 18.1482 29.25 17.8054 29.4167C17.4629 29.5833 17.1065 29.6018 16.7363 29.4721C14.7268 28.7871 13.1018 27.5765 11.8613 25.8404C10.6204 24.1043 10 22.1575 10 20Z" fill="#009FFF"/>
</g>
</svg>
