<svg width="64" height="64" viewBox="0 0 64 64" fill="none" xmlns="http://www.w3.org/2000/svg">
<mask id="mask0_3_9027" style="mask-type:alpha" maskUnits="userSpaceOnUse" x="12" y="12" width="40" height="40">
<rect x="12" y="12" width="40" height="40" fill="#D9D9D9"/>
</mask>
<g mask="url(#mask0_3_9027)">
<path d="M47.2776 33.3888H43.6663C43.2727 33.3888 42.9429 33.2554 42.6768 32.9884C42.4107 32.7212 42.2776 32.3901 42.2776 31.9951C42.2776 31.6004 42.4107 31.2711 42.6768 31.0072C42.9429 30.7433 43.2727 30.6113 43.6663 30.6113H47.2776C47.6709 30.6113 48.0008 30.7448 48.2672 31.0117C48.5333 31.279 48.6663 31.6101 48.6663 32.0051C48.6663 32.3998 48.5333 32.7291 48.2672 32.993C48.0008 33.2569 47.6709 33.3888 47.2776 33.3888ZM40.0276 40.3888C40.2681 40.0741 40.572 39.889 40.9393 39.8334C41.3065 39.7779 41.6507 39.8705 41.9718 40.1113L44.8884 42.278C45.2034 42.5186 45.3887 42.8224 45.4443 43.1897C45.4998 43.5569 45.4072 43.9011 45.1663 44.2222C44.9255 44.5372 44.6216 44.7224 44.2547 44.778C43.8875 44.8336 43.5431 44.7409 43.2218 44.5001L40.3051 42.3334C39.9904 42.0926 39.8052 41.7887 39.7497 41.4217C39.6941 41.0545 39.7868 40.7102 40.0276 40.3888ZM44.8884 21.7222L42.0551 23.8613C41.734 24.1019 41.3898 24.1944 41.0226 24.1388C40.6554 24.0833 40.3515 23.8981 40.1109 23.5834C39.8701 23.2687 39.7775 22.9261 39.833 22.5555C39.8886 22.1852 40.0737 21.8797 40.3884 21.6388L43.2218 19.5001C43.5431 19.2592 43.8875 19.1666 44.2547 19.2222C44.6216 19.2777 44.9255 19.463 45.1663 19.778C45.4072 20.0927 45.4998 20.4352 45.4443 20.8055C45.3887 21.1761 45.2034 21.4816 44.8884 21.7222ZM20.6109 37.0001H18.1109C17.347 37.0001 16.693 36.7281 16.1488 36.1842C15.605 35.6401 15.333 34.9861 15.333 34.2222V29.778C15.333 29.0141 15.605 28.3601 16.1488 27.8159C16.693 27.272 17.347 27.0001 18.1109 27.0001H25.333L31.5693 23.2501C32.032 22.9723 32.4973 22.9717 32.9651 23.2484C33.4326 23.5248 33.6663 23.9281 33.6663 24.4584V39.5417C33.6663 40.072 33.4326 40.4754 32.9651 40.7517C32.4973 41.0284 32.032 41.0279 31.5693 40.7501L25.333 37.0001H23.3884V42.278C23.3884 42.6713 23.255 43.0012 22.988 43.2676C22.7208 43.5337 22.3897 43.6667 21.9947 43.6667C21.6 43.6667 21.2706 43.5337 21.0068 43.2676C20.7429 43.0012 20.6109 42.6713 20.6109 42.278V37.0001ZM30.8884 37.0834V26.9167L26.083 29.778H18.1109V34.2222H26.083L30.8884 37.0834ZM35.333 37.5834V26.4167C36.083 27.0834 36.6872 27.8959 37.1455 28.8542C37.6038 29.8126 37.833 30.8612 37.833 32.0001C37.833 33.139 37.6038 34.1876 37.1455 35.1459C36.6872 36.1042 36.083 36.9167 35.333 37.5834Z" fill="#009FFF"/>
</g>
<rect width="64" height="64" rx="8" fill="#009FFF" fill-opacity="0.1"/>
</svg>
