<svg width="170" height="28" viewBox="0 0 170 28" fill="none" xmlns="http://www.w3.org/2000/svg">
<g clip-path="url(#clip0_4960_328)">
<path d="M2.27306 27.3137H0V7.62867H2.27306V10.5933H2.34864C2.92868 9.45313 3.76194 8.5857 4.84842 7.99002C5.93392 7.39532 7.12148 7.09698 8.40916 7.09698C9.318 7.09698 10.0884 7.1984 10.7195 7.40123C11.3506 7.60405 11.8875 7.8758 12.3291 8.21844C12.7708 8.5601 13.1369 8.95886 13.4284 9.41571C13.7179 9.87158 13.9642 10.3659 14.1664 10.8975C14.823 9.60574 15.7004 8.6497 16.7997 8.02841C17.8979 7.40812 19.1542 7.09797 20.5685 7.09797C21.9062 7.09797 22.9741 7.32049 23.769 7.76258C24.565 8.20663 25.1765 8.78951 25.6063 9.51024C26.0362 10.2319 26.3199 11.0629 26.4592 11.9993C26.5976 12.9366 26.6673 13.8996 26.6673 14.8881V27.3147H24.3952V13.7086C24.3952 12.2898 24.0978 11.1752 23.505 10.3649C22.9112 9.55454 21.8061 9.14889 20.1906 9.14889C19.3574 9.14889 18.5555 9.33301 17.7851 9.70026C17.0146 10.0675 16.3394 10.6307 15.7584 11.3918C15.5061 11.7216 15.2971 12.1086 15.1332 12.5507C14.9683 12.9947 14.8358 13.4575 14.7357 13.938C14.6346 14.4194 14.5649 14.9019 14.5276 15.3824C14.4893 15.8638 14.4707 16.3069 14.4707 16.7126V27.3167H12.1976V13.7086C12.1976 12.2898 11.9002 11.1752 11.3074 10.3649C10.7136 9.55454 9.60851 9.14889 7.99302 9.14889C7.15976 9.14889 6.35693 9.33301 5.58746 9.70026C4.81701 10.0675 4.14177 10.6307 3.56074 11.3918C3.30851 11.7216 3.09945 12.1086 2.93555 12.5507C2.77165 12.9947 2.63817 13.4575 2.53806 13.938C2.43697 14.4194 2.36728 14.9019 2.32999 15.3824C2.29171 15.8638 2.27306 16.3069 2.27306 16.7126V27.3137Z" fill="white"/>
<path d="M33.2611 18.0034C33.2611 19.0677 33.3995 20.074 33.6783 21.0241C33.956 21.9742 34.3663 22.7984 34.909 23.4945C35.4518 24.1916 36.1398 24.7469 36.974 25.1663C37.8082 25.5848 38.7671 25.7935 39.8526 25.7935C41.3425 25.7935 42.6174 25.4016 43.6784 24.6169C44.7393 23.8302 45.446 22.7156 45.7993 21.2732H48.3374C48.0596 22.2096 47.6935 23.078 47.2391 23.8775C46.7847 24.676 46.2164 25.3731 45.5343 25.9678C44.8522 26.5625 44.0435 27.0242 43.1101 27.3541C42.1758 27.6829 41.0893 27.8474 39.8526 27.8474C38.2862 27.8474 36.9357 27.5805 35.7992 27.0479C34.6627 26.5172 33.7283 25.7896 32.9961 24.8631C32.263 23.9395 31.7202 22.8496 31.3669 21.5962C31.0126 20.3428 30.8359 18.9919 30.8359 17.5495C30.8359 16.1051 31.044 14.7493 31.4611 13.4831C31.8783 12.2159 32.4711 11.1072 33.2415 10.1571C34.012 9.20696 34.9522 8.45965 36.0632 7.91615C37.1742 7.37069 38.4364 7.09894 39.8517 7.09894C42.5536 7.09894 44.6755 8.02938 46.2155 9.89224C47.7554 11.7541 48.513 14.4588 48.4885 18.0053L33.2611 18.0034ZM46.0653 16.1031C46.0653 15.1401 45.9328 14.2353 45.6678 13.3856C45.4018 12.5369 45.0112 11.8024 44.493 11.1811C43.9748 10.5608 43.325 10.0665 42.5418 9.69926C41.7586 9.33201 40.8626 9.14788 39.8526 9.14788C38.8427 9.14788 37.9515 9.33791 37.1821 9.71797C36.4116 10.098 35.755 10.6041 35.2123 11.2382C34.6685 11.8723 34.2328 12.6068 33.905 13.4417C33.5762 14.2786 33.3612 15.1648 33.2611 16.1021L46.0653 16.1031Z" fill="white"/>
<path d="M59.8128 27.3895C59.5341 27.4417 59.169 27.5303 58.7136 27.6564C58.2591 27.7814 57.7537 27.8444 57.1992 27.8444C56.0626 27.8444 55.197 27.5599 54.6042 26.9908C54.0104 26.4197 53.714 25.4006 53.714 23.9316V9.52794H50.9492V7.62767H53.714V2.15527H55.9871V7.62767H59.6617V9.52794H55.9871V23.0189C55.9871 23.5004 55.9998 23.9188 56.0253 24.2723C56.0499 24.6258 56.1264 24.9182 56.2521 25.1476C56.3777 25.3741 56.574 25.5395 56.84 25.6419C57.1049 25.7443 57.4769 25.7925 57.9569 25.7925C58.2601 25.7925 58.5693 25.7689 58.8853 25.7167C59.2004 25.6665 59.5105 25.6035 59.8138 25.5267V27.3905L59.8128 27.3895Z" fill="white"/>
<path d="M72.4669 15.8373C72.8968 15.787 73.4072 15.7112 74.0009 15.6098C74.5937 15.5084 75.0806 15.3696 75.4594 15.1914C75.8382 15.0141 76.0718 14.7168 76.1602 14.2983C76.2485 13.8809 76.2927 13.4949 76.2927 13.1395C76.2927 11.9737 75.9197 11.0176 75.1748 10.2703C74.4298 9.52303 73.1726 9.14888 71.406 9.14888C70.6228 9.14888 69.9033 9.21879 69.2467 9.35762C68.5901 9.49743 68.016 9.73865 67.5233 10.0793C67.0306 10.422 66.6262 10.8778 66.3112 11.4479C65.9961 12.018 65.7871 12.7348 65.686 13.5953H63.3756C63.4512 12.4305 63.7172 11.4361 64.1716 10.613C64.626 9.78985 65.2139 9.11737 65.9333 8.59849C66.6527 8.07961 67.487 7.69955 68.4331 7.45833C69.3802 7.21808 70.3843 7.09796 71.4442 7.09796C72.4286 7.09796 73.3571 7.20529 74.2286 7.42091C75.1002 7.63654 75.8579 7.97819 76.5017 8.44686C77.1455 8.91652 77.65 9.54272 78.0171 10.3274C78.3832 11.1132 78.5667 12.0751 78.5667 13.2163V23.9316C78.5667 24.8197 78.7237 25.3839 79.0398 25.6242C79.3548 25.8654 79.9928 25.8093 80.9526 25.4528V27.2389C80.774 27.2891 80.5179 27.3639 80.1753 27.4654C79.8348 27.5678 79.5001 27.617 79.1713 27.617C78.818 27.617 78.4764 27.5786 78.1486 27.5038C77.7698 27.4516 77.4665 27.3324 77.2398 27.1424C77.0131 26.9544 76.8295 26.724 76.6901 26.4601C76.5508 26.1933 76.4566 25.9028 76.4055 25.5848C76.3545 25.2697 76.33 24.933 76.33 24.5775C75.3701 25.6429 74.2708 26.4532 73.0342 27.0115C71.7966 27.5678 70.4579 27.8474 69.019 27.8474C68.1603 27.8474 67.3339 27.7342 66.5379 27.5057C65.7419 27.2773 65.0412 26.9219 64.4356 26.4414C63.8291 25.9609 63.3491 25.3711 62.9958 24.674C62.6415 23.9779 62.4648 23.1469 62.4648 22.185C62.4648 18.8413 64.7507 16.8652 69.3213 16.2567L72.4669 15.8373ZM76.2936 16.9774C75.3338 17.3831 74.3621 17.6489 73.3767 17.7759C72.3923 17.9029 71.4069 18.0034 70.4225 18.0802C68.6804 18.2072 67.3221 18.5991 66.3505 19.2578C65.3778 19.9174 64.892 20.9188 64.892 22.2598C64.892 22.8683 65.0117 23.3931 65.2522 23.8381C65.4917 24.2822 65.8077 24.6484 66.1993 24.9399C66.5909 25.2323 67.0453 25.4479 67.5635 25.5858C68.0808 25.7266 68.6058 25.7945 69.1358 25.7945C70.0447 25.7945 70.929 25.6823 71.7878 25.4509C72.6465 25.2244 73.4101 24.8759 74.0795 24.4062C74.7478 23.9366 75.2857 23.3428 75.6891 22.6202C76.0924 21.8994 76.2956 21.0428 76.2956 20.0563V16.9764L76.2936 16.9774Z" fill="white"/>
<path d="M96.3042 14.3426C96.2041 13.5884 95.9519 12.9081 95.5455 12.3026C94.9527 11.4863 94.0311 11.0777 92.7837 11.0777C91.0043 11.0777 89.7853 11.9619 89.1297 13.7312C88.7823 14.6686 88.6115 15.915 88.6115 17.4697C88.6115 18.9506 88.7842 20.1409 89.1297 21.0409C89.7618 22.7235 90.9484 23.5644 92.6895 23.5644C93.9271 23.5644 94.8035 23.2286 95.3237 22.5611C95.8409 21.8925 96.1599 21.0261 96.2698 19.9627H101.652C101.528 21.5706 100.947 23.0938 99.913 24.5283C98.2573 26.8421 95.8076 27.997 92.5619 27.997C89.3162 27.997 86.9283 27.0331 85.3962 25.1033C83.8651 23.1725 83.0996 20.6707 83.0996 17.5967C83.0996 14.128 83.9446 11.4273 85.6367 9.49744C87.3287 7.56763 89.6617 6.60272 92.6365 6.60272C95.1657 6.60272 97.2376 7.17182 98.8462 8.30903C100.458 9.44723 101.411 11.4578 101.708 14.3397L96.3042 14.3426Z" fill="#009FFF"/>
<path d="M110.566 7.08813V19.2804C110.566 20.4304 110.701 21.2959 110.97 21.8788C111.447 22.9057 112.387 23.4177 113.786 23.4177C115.576 23.4177 116.803 22.6891 117.467 21.2279C117.81 20.4363 117.981 19.3917 117.981 18.092V7.08813H123.327V27.3138H118.202V24.4564C118.152 24.5185 118.029 24.7046 117.834 25.0118C117.637 25.3209 117.404 25.5946 117.132 25.828C116.308 26.5704 115.513 27.0794 114.743 27.3502C113.974 27.6209 113.074 27.7578 112.04 27.7578C109.065 27.7578 107.06 26.6816 106.027 24.5293C105.45 23.3429 105.16 21.5932 105.16 19.2794V7.08813H110.566Z" fill="#009FFF"/>
<path d="M145.667 9.51909C147.174 11.4361 147.929 13.9104 147.929 16.941C147.929 20.0828 147.185 22.6871 145.699 24.7528C144.212 26.8204 142.136 27.8523 139.47 27.8523C137.797 27.8523 136.453 27.5166 135.436 26.849C134.83 26.4542 134.173 25.762 133.464 24.7705V27.3127H128.268V0H133.539V9.72291C134.209 8.7836 134.948 8.06485 135.755 7.57058C136.711 6.95127 137.927 6.64308 139.404 6.64308C142.071 6.64308 144.158 7.6011 145.667 9.51909ZM141.26 21.8394C142.019 20.7386 142.399 19.2912 142.399 17.4973C142.399 16.0627 142.213 14.8753 141.839 13.935C141.13 12.1529 139.824 11.2628 137.924 11.2628C135.997 11.2628 134.674 12.1352 133.951 13.8789C133.577 14.8064 133.393 16.0066 133.393 17.4786C133.393 19.2105 133.779 20.6451 134.549 21.7842C135.319 22.9214 136.494 23.4905 138.075 23.4905C139.439 23.4915 140.502 22.9392 141.26 21.8394Z" fill="#009FFF"/>
<path d="M164.728 7.49774C166.135 8.12985 167.295 9.12724 168.213 10.4899C169.037 11.6921 169.574 13.0853 169.82 14.6705C169.962 15.6 170.019 16.939 169.993 18.6847H155.31C155.391 20.715 156.094 22.1367 157.417 22.953C158.222 23.461 159.191 23.7121 160.323 23.7121C161.525 23.7121 162.501 23.4039 163.25 22.7856C163.659 22.4508 164.02 21.9871 164.334 21.3944H169.715C169.572 22.5946 168.922 23.8125 167.762 25.0502C165.956 27.0164 163.427 28 160.176 28C157.493 28 155.125 27.17 153.075 25.5129C151.025 23.8539 149.998 21.1531 149.998 17.4136C149.998 13.9104 150.924 11.2235 152.776 9.3537C154.628 7.48494 157.03 6.54858 159.985 6.54858C161.741 6.54957 163.32 6.86563 164.728 7.49774ZM156.842 12.0663C156.096 12.8362 155.63 13.8809 155.436 15.1973H164.519C164.423 13.7933 163.955 12.7279 163.114 12.0013C162.274 11.2747 161.232 10.9113 159.986 10.9113C158.636 10.9104 157.585 11.2953 156.842 12.0663Z" fill="#009FFF"/>
</g>
<defs>
<clipPath id="clip0_4960_328">
<rect width="170" height="28" fill="white"/>
</clipPath>
</defs>
</svg>
