<svg width="40" height="40" viewBox="0 0 40 40" fill="none" xmlns="http://www.w3.org/2000/svg">
<mask id="mask0_10_435" style="mask-type:alpha" maskUnits="userSpaceOnUse" x="0" y="0" width="40" height="40">
<rect width="40" height="40" fill="#D9D9D9"/>
</mask>
<g mask="url(#mask0_10_435)">
<path d="M1.61133 29.1667C1.61133 28.2036 1.85897 27.3262 2.35424 26.5346C2.84952 25.7429 3.52772 25.1481 4.38883 24.75C6.31494 23.8703 8.11591 23.229 9.79175 22.8262C11.4676 22.4235 13.1852 22.2221 14.9447 22.2221C16.7038 22.2221 18.4167 22.4235 20.0834 22.8262C21.7501 23.229 23.5463 23.8703 25.4722 24.75C26.3333 25.1481 27.0162 25.7429 27.5209 26.5346C28.0256 27.3262 28.278 28.2036 28.278 29.1667V30.5554C28.278 31.3193 28.0059 31.9733 27.4617 32.5175C26.9179 33.0614 26.264 33.3333 25.5001 33.3333H4.38883C3.62494 33.3333 2.97105 33.0614 2.42716 32.5175C1.88327 31.9733 1.61133 31.3193 1.61133 30.5554V29.1667ZM35.6113 33.3333H30.3613C30.5558 32.8889 30.7201 32.4375 30.8542 31.9792C30.9884 31.5208 31.0555 31.0462 31.0555 30.5554V29.0554C31.0555 27.4815 30.6736 26.1506 29.9097 25.0625C29.1458 23.9744 28.0186 23.0554 26.528 22.3054C28.278 22.5093 29.9261 22.8079 31.4722 23.2012C33.0186 23.5949 34.3241 24.074 35.3888 24.6387C36.3333 25.176 37.0694 25.8172 37.5972 26.5625C38.1249 27.3078 38.3888 28.1388 38.3888 29.0554V30.5554C38.3888 31.3193 38.1169 31.9733 37.573 32.5175C37.0291 33.0614 36.3752 33.3333 35.6113 33.3333ZM14.9447 19.9721C13.1113 19.9721 11.5881 19.3657 10.3751 18.1529C9.16202 16.9399 8.5555 15.4167 8.5555 13.5833C8.5555 11.75 9.16202 10.2268 10.3751 9.01375C11.5881 7.80097 13.1113 7.19458 14.9447 7.19458C16.778 7.19458 18.3011 7.80097 19.5138 9.01375C20.7269 10.2268 21.3334 11.75 21.3334 13.5833C21.3334 15.4167 20.7269 16.9399 19.5138 18.1529C18.3011 19.3657 16.778 19.9721 14.9447 19.9721ZM30.5001 13.5833C30.5001 15.4167 29.8936 16.9399 28.6805 18.1529C27.4677 19.3657 25.9447 19.9721 24.1113 19.9721C23.8058 19.9721 23.4492 19.9467 23.0417 19.8958C22.6342 19.845 22.2777 19.7686 21.9722 19.6667C22.6666 18.9075 23.1967 18.0093 23.5626 16.9721C23.9284 15.9351 24.1113 14.8056 24.1113 13.5833C24.1113 12.3611 23.9284 11.25 23.5626 10.25C23.1967 9.25 22.6666 8.33333 21.9722 7.5C22.3055 7.39805 22.662 7.32166 23.0417 7.27083C23.4215 7.22 23.778 7.19458 24.1113 7.19458C25.9447 7.19458 27.4677 7.80097 28.6805 9.01375C29.8936 10.2268 30.5001 11.75 30.5001 13.5833ZM4.38883 30.5554H25.5001V29.1667C25.5001 28.7686 25.3866 28.389 25.1597 28.0279C24.933 27.6668 24.6483 27.4075 24.3055 27.25C22.4722 26.4075 20.8472 25.8218 19.4305 25.4929C18.0138 25.1643 16.5186 25 14.9447 25C13.3705 25 11.8705 25.1643 10.4447 25.4929C9.01855 25.8218 7.38883 26.4075 5.5555 27.25C5.213 27.4075 4.93299 27.6668 4.71549 28.0279C4.49772 28.389 4.38883 28.7686 4.38883 29.1667V30.5554ZM14.9447 17.1946C15.9724 17.1946 16.8312 16.8496 17.5209 16.1596C18.2106 15.4699 18.5555 14.6111 18.5555 13.5833C18.5555 12.5556 18.2106 11.6968 17.5209 11.0071C16.8312 10.3171 15.9724 9.97208 14.9447 9.97208C13.9169 9.97208 13.058 10.3171 12.368 11.0071C11.6783 11.6968 11.3334 12.5556 11.3334 13.5833C11.3334 14.6111 11.6783 15.4699 12.368 16.1596C13.058 16.8496 13.9169 17.1946 14.9447 17.1946Z" fill="#009FFF"/>
</g>
</svg>
