<svg width="40" height="40" viewBox="0 0 40 40" fill="none" xmlns="http://www.w3.org/2000/svg">
<mask id="mask0_10_442" style="mask-type:alpha" maskUnits="userSpaceOnUse" x="0" y="0" width="40" height="40">
<rect width="40" height="40" fill="#D9D9D9"/>
</mask>
<g mask="url(#mask0_10_442)">
<path d="M4.33353 29.4583C4.05575 29.1805 3.91922 28.8495 3.92395 28.4654C3.92839 28.0809 4.06492 27.7545 4.33353 27.4862L13.5973 18.2083C14.1239 17.6805 14.7764 17.4166 15.5548 17.4166C16.3331 17.4166 16.9862 17.6805 17.5139 18.2083L22.4169 23.125L32.0002 13.5695H28.4169C28.0233 13.5695 27.6934 13.4359 27.4273 13.1687C27.1612 12.9015 27.0281 12.5705 27.0281 12.1758C27.0281 11.7808 27.1612 11.4513 27.4273 11.1875C27.6934 10.9236 28.0233 10.7916 28.4169 10.7916H35.2781C35.6714 10.7916 36.0013 10.9247 36.2677 11.1908C36.5338 11.4572 36.6669 11.787 36.6669 12.1804V19.0416C36.6669 19.4213 36.537 19.7477 36.2773 20.0208C36.0176 20.2938 35.6959 20.4304 35.3123 20.4304C34.9284 20.4304 34.5998 20.2938 34.3264 20.0208C34.0534 19.7477 33.9169 19.4213 33.9169 19.0416V15.5695L24.3473 25.1112C23.8209 25.639 23.1685 25.9029 22.3902 25.9029C21.6116 25.9029 20.9584 25.639 20.4306 25.1112L15.5281 20.2362L6.30561 29.4583C6.03728 29.7269 5.70867 29.8612 5.31978 29.8612C4.93089 29.8612 4.60214 29.7269 4.33353 29.4583Z" fill="#009FFF"/>
</g>
</svg>
