<svg width="28" height="28" viewBox="0 0 28 28" fill="none" xmlns="http://www.w3.org/2000/svg">
<mask id="mask0_267_989" style="mask-type:alpha" maskUnits="userSpaceOnUse" x="0" y="0" width="28" height="28">
<rect width="28" height="28" fill="#D9D9D9"/>
</mask>
<g mask="url(#mask0_267_989)">
<path d="M4.27706 24.5007C3.75206 24.5007 3.29667 24.3079 2.91089 23.9223C2.52531 23.5365 2.33252 23.0811 2.33252 22.5561V8.94519C2.33252 8.42019 2.52531 7.9648 2.91089 7.57903C3.29667 7.19344 3.75206 7.00065 4.27706 7.00065H9.33252V4.27853C9.33252 3.75353 9.52531 3.29814 9.9109 2.91236C10.2967 2.52678 10.7521 2.33398 11.2771 2.33398H16.7213C17.2463 2.33398 17.7017 2.52678 18.0875 2.91236C18.4731 3.29814 18.6659 3.75353 18.6659 4.27853V7.00065H23.7213C24.2463 7.00065 24.7017 7.19344 25.0875 7.57903C25.4731 7.9648 25.6659 8.42019 25.6659 8.94519V22.5561C25.6659 23.0811 25.4731 23.5365 25.0875 23.9223C24.7017 24.3079 24.2463 24.5007 23.7213 24.5007H4.27706ZM11.2771 7.00065H16.7213V4.27853H11.2771V7.00065ZM23.7213 17.2869H16.9354V18.2625C16.9354 18.5388 16.8421 18.7693 16.6554 18.954C16.4689 19.1387 16.2378 19.2311 15.9621 19.2311H12.0698C11.7941 19.2311 11.5639 19.138 11.3791 18.9517C11.1944 18.7654 11.1021 18.5345 11.1021 18.259V17.2869H4.27706V22.5561H23.7213V17.2869ZM13.0463 17.2869H14.9909V15.3423H13.0463V17.2869ZM4.27706 15.3423H11.1021V14.3667C11.1021 14.0902 11.1953 13.8596 11.3818 13.6749C11.5682 13.4901 11.7993 13.3978 12.0751 13.3978H15.9676C16.2434 13.3978 16.4736 13.491 16.6583 13.6775C16.843 13.8638 16.9354 14.0947 16.9354 14.3702V15.3423H23.7213V8.94519H4.27706V15.3423Z" fill="#009FFF"/>
</g>
</svg>
