<svg width="64" height="64" viewBox="0 0 64 64" fill="none" xmlns="http://www.w3.org/2000/svg">
<rect width="64" height="64" rx="8" fill="#009FFF" fill-opacity="0.1"/>
<mask id="mask0_3716_1161" style="mask-type:alpha" maskUnits="userSpaceOnUse" x="18" y="18" width="28" height="28">
<rect x="18" y="18" width="28" height="28" fill="#D9D9D9"/>
</mask>
<g mask="url(#mask0_3716_1161)">
<path d="M30.776 32.8169L29.0844 31.1544C28.8705 30.9405 28.6031 30.8336 28.2823 30.8336C27.9615 30.8336 27.6844 30.9503 27.451 31.1836C27.2372 31.3975 27.1302 31.6697 27.1302 32.0003C27.1302 32.3308 27.2372 32.603 27.451 32.8169L29.9594 35.3253C30.1927 35.5586 30.4649 35.6753 30.776 35.6753C31.0872 35.6753 31.3594 35.5586 31.5927 35.3253L36.551 30.3669C36.7844 30.1336 36.8962 29.8614 36.8865 29.5503C36.8767 29.2391 36.7649 28.9669 36.551 28.7336C36.3177 28.5003 36.0406 28.3787 35.7198 28.369C35.399 28.3593 35.1219 28.4711 34.8885 28.7044L30.776 32.8169ZM27.5094 43.3753L25.8177 40.5169L22.6094 39.8169C22.3177 39.7586 22.0844 39.6079 21.9094 39.3648C21.7344 39.1218 21.6663 38.8544 21.7052 38.5628L22.026 35.2669L19.8385 32.7586C19.6441 32.5447 19.5469 32.2919 19.5469 32.0003C19.5469 31.7086 19.6441 31.4558 19.8385 31.2419L22.026 28.7336L21.7052 25.4378C21.6663 25.1461 21.7344 24.8787 21.9094 24.6357C22.0844 24.3926 22.3177 24.2419 22.6094 24.1836L25.8177 23.4836L27.5094 20.6253C27.6649 20.3725 27.8788 20.2023 28.151 20.1148C28.4233 20.0273 28.6955 20.0419 28.9677 20.1586L32.001 21.4419L35.0344 20.1586C35.3066 20.0419 35.5788 20.0273 35.851 20.1148C36.1233 20.2023 36.3372 20.3725 36.4927 20.6253L38.1844 23.4836L41.3927 24.1836C41.6844 24.2419 41.9177 24.3926 42.0927 24.6357C42.2677 24.8787 42.3358 25.1461 42.2969 25.4378L41.976 28.7336L44.1635 31.2419C44.358 31.4558 44.4552 31.7086 44.4552 32.0003C44.4552 32.2919 44.358 32.5447 44.1635 32.7586L41.976 35.2669L42.2969 38.5628C42.3358 38.8544 42.2677 39.1218 42.0927 39.3648C41.9177 39.6079 41.6844 39.7586 41.3927 39.8169L38.1844 40.5169L36.4927 43.3753C36.3372 43.628 36.1233 43.7982 35.851 43.8857C35.5788 43.9732 35.3066 43.9586 35.0344 43.8419L32.001 42.5586L28.9677 43.8419C28.6955 43.9586 28.4233 43.9732 28.151 43.8857C27.8788 43.7982 27.6649 43.628 27.5094 43.3753ZM29.026 41.2753L32.001 39.9919L35.0344 41.2753L36.6677 38.4753L39.876 37.7169L39.5844 34.4503L41.7427 32.0003L39.5844 29.4919L39.876 26.2253L36.6677 25.5253L34.976 22.7253L32.001 24.0086L28.9677 22.7253L27.3344 25.5253L24.126 26.2253L24.4177 29.4919L22.2594 32.0003L24.4177 34.4503L24.126 37.7753L27.3344 38.4753L29.026 41.2753Z" fill="#009FFF"/>
</g>
</svg>
