<svg width="24" height="24" viewBox="0 0 24 24" fill="none" xmlns="http://www.w3.org/2000/svg">
<mask id="mask0_267_1060" style="mask-type:alpha" maskUnits="userSpaceOnUse" x="0" y="0" width="24" height="24">
<rect width="24" height="24" fill="#D9D9D9"/>
</mask>
<g mask="url(#mask0_267_1060)">
<path d="M6.5 20C4.98333 20 3.6875 19.475 2.6125 18.425C1.5375 17.375 1 16.0917 1 14.575C1 13.275 1.39167 12.1167 2.175 11.1C2.95833 10.0833 3.98333 9.43333 5.25 9.15C5.66667 7.61667 6.5 6.375 7.75 5.425C9 4.475 10.4167 4 12 4C13.95 4 15.6042 4.67917 16.9625 6.0375C18.3208 7.39583 19 9.05 19 11C20.15 11.1333 21.1042 11.6292 21.8625 12.4875C22.6208 13.3458 23 14.35 23 15.5C23 16.75 22.5625 17.8125 21.6875 18.6875C20.8125 19.5625 19.75 20 18.5 20H13V12.85L13.9 13.725C14.0833 13.9083 14.3125 14 14.5875 14C14.8625 14 15.1 13.9 15.3 13.7C15.4833 13.5167 15.575 13.2833 15.575 13C15.575 12.7167 15.4833 12.4833 15.3 12.3L12.7 9.7C12.5 9.5 12.2667 9.4 12 9.4C11.7333 9.4 11.5 9.5 11.3 9.7L8.7 12.3C8.51667 12.4833 8.42083 12.7125 8.4125 12.9875C8.40417 13.2625 8.5 13.5 8.7 13.7C8.88333 13.8833 9.1125 13.9792 9.3875 13.9875C9.6625 13.9958 9.9 13.9083 10.1 13.725L11 12.85V20H6.5Z" fill="white"/>
</g>
</svg>
