<svg width="28" height="28" viewBox="0 0 28 28" fill="none" xmlns="http://www.w3.org/2000/svg">
<mask id="mask0_223_973" style="mask-type:alpha" maskUnits="userSpaceOnUse" x="0" y="0" width="28" height="28">
<rect width="28" height="28" fill="#D9D9D9"/>
</mask>
<g mask="url(#mask0_223_973)">
<path d="M5.6291 14.0293L10.1499 18.5501C10.3638 18.764 10.4708 19.0362 10.4708 19.3668C10.4708 19.6974 10.3638 19.9696 10.1499 20.1835C9.93605 20.3974 9.66382 20.5043 9.33327 20.5043C9.00271 20.5043 8.73049 20.3974 8.5166 20.1835L3.14993 14.8168C3.03327 14.7001 2.95063 14.5737 2.90202 14.4376C2.85341 14.3015 2.8291 14.1557 2.8291 14.0001C2.8291 13.8446 2.85341 13.6987 2.90202 13.5626C2.95063 13.4265 3.03327 13.3001 3.14993 13.1835L8.5166 7.8168C8.74993 7.58346 9.02702 7.4668 9.34785 7.4668C9.66868 7.4668 9.94577 7.58346 10.1791 7.8168C10.4124 8.05013 10.5291 8.32721 10.5291 8.64805C10.5291 8.96888 10.4124 9.24596 10.1791 9.4793L5.6291 14.0293ZM22.3708 13.971L17.8499 9.45013C17.636 9.23624 17.5291 8.96402 17.5291 8.63346C17.5291 8.30291 17.636 8.03069 17.8499 7.8168C18.0638 7.60291 18.336 7.49596 18.6666 7.49596C18.9972 7.49596 19.2694 7.60291 19.4833 7.8168L24.8499 13.1835C24.9666 13.3001 25.0492 13.4265 25.0979 13.5626C25.1465 13.6987 25.1708 13.8446 25.1708 14.0001C25.1708 14.1557 25.1465 14.3015 25.0979 14.4376C25.0492 14.5737 24.9666 14.7001 24.8499 14.8168L19.4833 20.1835C19.2499 20.4168 18.9777 20.5286 18.6666 20.5189C18.3555 20.5092 18.0833 20.3876 17.8499 20.1543C17.6166 19.921 17.4999 19.6439 17.4999 19.323C17.4999 19.0022 17.6166 18.7251 17.8499 18.4918L22.3708 13.971Z" fill="#009FFF"/>
</g>
</svg>
