<svg width="28" height="28" viewBox="0 0 28 28" fill="none" xmlns="http://www.w3.org/2000/svg">
<mask id="mask0_223_1009" style="mask-type:alpha" maskUnits="userSpaceOnUse" x="0" y="0" width="28" height="28">
<rect width="28" height="28" fill="#D9D9D9"/>
</mask>
<g mask="url(#mask0_223_1009)">
<path d="M13.9998 13.9993C12.7165 13.9993 11.6179 13.5424 10.704 12.6285C9.79011 11.7146 9.33317 10.616 9.33317 9.33268C9.33317 8.04935 9.79011 6.95074 10.704 6.03685C11.6179 5.12296 12.7165 4.66602 13.9998 4.66602C15.2832 4.66602 16.3818 5.12296 17.2957 6.03685C18.2096 6.95074 18.6665 8.04935 18.6665 9.33268C18.6665 10.616 18.2096 11.7146 17.2957 12.6285C16.3818 13.5424 15.2832 13.9993 13.9998 13.9993ZM4.6665 20.9993V20.066C4.6665 19.4049 4.83664 18.7973 5.17692 18.2431C5.5172 17.6889 5.96928 17.266 6.53317 16.9743C7.73873 16.3716 8.96373 15.9195 10.2082 15.6181C11.4526 15.3167 12.7165 15.166 13.9998 15.166C15.2832 15.166 16.5471 15.3167 17.7915 15.6181C19.0359 15.9195 20.2609 16.3716 21.4665 16.9743C22.0304 17.266 22.4825 17.6889 22.8228 18.2431C23.163 18.7973 23.3332 19.4049 23.3332 20.066V20.9993C23.3332 21.641 23.1047 22.1903 22.6478 22.6473C22.1908 23.1042 21.6415 23.3327 20.9998 23.3327H6.99984C6.35817 23.3327 5.80887 23.1042 5.35192 22.6473C4.89498 22.1903 4.6665 21.641 4.6665 20.9993ZM6.99984 20.9993H20.9998V20.066C20.9998 19.8521 20.9464 19.6577 20.8394 19.4827C20.7325 19.3077 20.5915 19.1716 20.4165 19.0743C19.3665 18.5493 18.3068 18.1556 17.2373 17.8931C16.1679 17.6306 15.0887 17.4993 13.9998 17.4993C12.9109 17.4993 11.8318 17.6306 10.7623 17.8931C9.69289 18.1556 8.63317 18.5493 7.58317 19.0743C7.40817 19.1716 7.2672 19.3077 7.16025 19.4827C7.05331 19.6577 6.99984 19.8521 6.99984 20.066V20.9993ZM13.9998 11.666C14.6415 11.666 15.1908 11.4375 15.6478 10.9806C16.1047 10.5237 16.3332 9.97435 16.3332 9.33268C16.3332 8.69102 16.1047 8.14171 15.6478 7.68477C15.1908 7.22782 14.6415 6.99935 13.9998 6.99935C13.3582 6.99935 12.8089 7.22782 12.3519 7.68477C11.895 8.14171 11.6665 8.69102 11.6665 9.33268C11.6665 9.97435 11.895 10.5237 12.3519 10.9806C12.8089 11.4375 13.3582 11.666 13.9998 11.666Z" fill="#009FFF"/>
</g>
</svg>
