<svg width="28" height="28" viewBox="0 0 28 28" fill="none" xmlns="http://www.w3.org/2000/svg">
<mask id="mask0_223_982" style="mask-type:alpha" maskUnits="userSpaceOnUse" x="0" y="0" width="28" height="28">
<rect width="28" height="28" fill="#D9D9D9"/>
</mask>
<g mask="url(#mask0_223_982)">
<path d="M4.66683 24.5007C4.02516 24.5007 3.47586 24.2722 3.01891 23.8152C2.56197 23.3583 2.3335 22.809 2.3335 22.1673V9.33398C2.3335 8.69232 2.56197 8.14301 3.01891 7.68607C3.47586 7.22912 4.02516 7.00065 4.66683 7.00065H9.3335V4.66732C9.3335 4.02565 9.56197 3.47635 10.0189 3.0194C10.4759 2.56246 11.0252 2.33398 11.6668 2.33398H16.3335C16.9752 2.33398 17.5245 2.56246 17.9814 3.0194C18.4384 3.47635 18.6668 4.02565 18.6668 4.66732V7.00065H23.3335C23.9752 7.00065 24.5245 7.22912 24.9814 7.68607C25.4384 8.14301 25.6668 8.69232 25.6668 9.33398V22.1673C25.6668 22.809 25.4384 23.3583 24.9814 23.8152C24.5245 24.2722 23.9752 24.5007 23.3335 24.5007H4.66683ZM4.66683 22.1673H23.3335V9.33398H4.66683V22.1673ZM11.6668 7.00065H16.3335V4.66732H11.6668V7.00065Z" fill="#009FFF"/>
</g>
</svg>
