<svg width="28" height="28" viewBox="0 0 28 28" fill="none" xmlns="http://www.w3.org/2000/svg">
<path d="M13.9987 25.6673C20.442 25.6673 25.6654 20.444 25.6654 14.0007C25.6654 7.55733 20.442 2.33398 13.9987 2.33398C7.55538 2.33398 2.33203 7.55733 2.33203 14.0007C2.33203 20.444 7.55538 25.6673 13.9987 25.6673Z" stroke="#009FFF" stroke-width="2" stroke-linecap="round" stroke-linejoin="round"/>
<path d="M14 21C17.866 21 21 17.866 21 14C21 10.134 17.866 7 14 7C10.134 7 7 10.134 7 14C7 17.866 10.134 21 14 21Z" stroke="#009FFF" stroke-width="2" stroke-linecap="round" stroke-linejoin="round"/>
<path d="M14.0013 16.3327C15.29 16.3327 16.3346 15.288 16.3346 13.9993C16.3346 12.7107 15.29 11.666 14.0013 11.666C12.7126 11.666 11.668 12.7107 11.668 13.9993C11.668 15.288 12.7126 16.3327 14.0013 16.3327Z" stroke="#009FFF" stroke-width="2" stroke-linecap="round" stroke-linejoin="round"/>
</svg>
