<svg width="28" height="28" viewBox="0 0 28 28" fill="none" xmlns="http://www.w3.org/2000/svg">
<mask id="mask0_223_991" style="mask-type:alpha" maskUnits="userSpaceOnUse" x="0" y="0" width="28" height="28">
<rect width="28" height="28" fill="#D9D9D9"/>
</mask>
<g mask="url(#mask0_223_991)">
<path d="M12.7457 17.6465L11.1123 16.0132C10.9957 15.8965 10.8693 15.809 10.7332 15.7507C10.5971 15.6923 10.4561 15.6632 10.3103 15.6632C10.1644 15.6632 10.0186 15.6923 9.87275 15.7507C9.72692 15.809 9.59567 15.8965 9.479 16.0132C9.24567 16.2465 9.129 16.5236 9.129 16.8444C9.129 17.1652 9.24567 17.4423 9.479 17.6757L11.9582 20.184C12.0748 20.3007 12.2012 20.3833 12.3373 20.4319C12.4734 20.4805 12.6193 20.5048 12.7748 20.5048C12.9304 20.5048 13.0762 20.4805 13.2123 20.4319C13.3484 20.3833 13.4748 20.3007 13.5915 20.184L18.5207 15.2548C18.754 15.0215 18.8707 14.7395 18.8707 14.409C18.8707 14.0784 18.754 13.7965 18.5207 13.5632C18.2873 13.3298 18.0054 13.2132 17.6748 13.2132C17.3443 13.2132 17.0623 13.3298 16.829 13.5632L12.7457 17.6465ZM6.99984 25.6673C6.35817 25.6673 5.80887 25.4388 5.35192 24.9819C4.89498 24.525 4.6665 23.9757 4.6665 23.334V4.66732C4.6665 4.02565 4.89498 3.47635 5.35192 3.0194C5.80887 2.56246 6.35817 2.33398 6.99984 2.33398H15.3707C15.6818 2.33398 15.9783 2.39232 16.2603 2.50898C16.5422 2.62565 16.7901 2.79093 17.004 3.00482L22.6623 8.66315C22.8762 8.87704 23.0415 9.12496 23.1582 9.4069C23.2748 9.68885 23.3332 9.98537 23.3332 10.2965V23.334C23.3332 23.9757 23.1047 24.525 22.6478 24.9819C22.1908 25.4388 21.6415 25.6673 20.9998 25.6673H6.99984ZM15.1665 9.33398V4.66732H6.99984V23.334H20.9998V10.5007H16.3332C16.0026 10.5007 15.7255 10.3888 15.5019 10.1652C15.2783 9.94162 15.1665 9.66454 15.1665 9.33398Z" fill="#009FFF"/>
</g>
</svg>
