<svg width="28" height="28" viewBox="0 0 28 28" fill="none" xmlns="http://www.w3.org/2000/svg">
<mask id="mask0_223_1000" style="mask-type:alpha" maskUnits="userSpaceOnUse" x="0" y="0" width="28" height="28">
<rect width="28" height="28" fill="#D9D9D9"/>
</mask>
<g mask="url(#mask0_223_1000)">
<path d="M12.8918 16.9167L17.7335 13.825C18.0835 13.5917 18.2585 13.2611 18.2585 12.8333C18.2585 12.4056 18.0835 12.075 17.7335 11.8417L12.8918 8.75C12.5029 8.49722 12.1043 8.47778 11.696 8.69167C11.2877 8.90556 11.0835 9.24583 11.0835 9.7125V15.9542C11.0835 16.4208 11.2877 16.7611 11.696 16.975C12.1043 17.1889 12.5029 17.1694 12.8918 16.9167ZM4.66683 22.1667C4.02516 22.1667 3.47586 21.9382 3.01891 21.4813C2.56197 21.0243 2.3335 20.475 2.3335 19.8333V5.83333C2.3335 5.19167 2.56197 4.64236 3.01891 4.18542C3.47586 3.72847 4.02516 3.5 4.66683 3.5H23.3335C23.9752 3.5 24.5245 3.72847 24.9814 4.18542C25.4384 4.64236 25.6668 5.19167 25.6668 5.83333V19.8333C25.6668 20.475 25.4384 21.0243 24.9814 21.4813C24.5245 21.9382 23.9752 22.1667 23.3335 22.1667H18.6668V23.3333C18.6668 23.6639 18.555 23.941 18.3314 24.1646C18.1078 24.3882 17.8307 24.5 17.5002 24.5H10.5002C10.1696 24.5 9.89252 24.3882 9.66891 24.1646C9.4453 23.941 9.3335 23.6639 9.3335 23.3333V22.1667H4.66683ZM4.66683 19.8333H23.3335V5.83333H4.66683V19.8333Z" fill="#009FFF"/>
</g>
</svg>
