<svg width="28" height="28" viewBox="0 0 28 28" fill="none" xmlns="http://www.w3.org/2000/svg">
<path d="M14 8.16675V24.5001" stroke="#009FFF" stroke-width="2" stroke-linecap="round" stroke-linejoin="round"/>
<path d="M3.4987 21C3.18928 21 2.89253 20.8771 2.67374 20.6583C2.45495 20.4395 2.33203 20.1428 2.33203 19.8333V4.66667C2.33203 4.35725 2.45495 4.0605 2.67374 3.84171C2.89253 3.62292 3.18928 3.5 3.4987 3.5H9.33203C10.5697 3.5 11.7567 3.99167 12.6319 4.86683C13.507 5.742 13.9987 6.92899 13.9987 8.16667C13.9987 6.92899 14.4904 5.742 15.3655 4.86683C16.2407 3.99167 17.4277 3.5 18.6654 3.5H24.4987C24.8081 3.5 25.1049 3.62292 25.3237 3.84171C25.5425 4.0605 25.6654 4.35725 25.6654 4.66667V19.8333C25.6654 20.1428 25.5425 20.4395 25.3237 20.6583C25.1049 20.8771 24.8081 21 24.4987 21H17.4987C16.5704 21 15.6802 21.3687 15.0238 22.0251C14.3674 22.6815 13.9987 23.5717 13.9987 24.5C13.9987 23.5717 13.63 22.6815 12.9736 22.0251C12.3172 21.3687 11.427 21 10.4987 21H3.4987Z" stroke="#009FFF" stroke-width="2" stroke-linecap="round" stroke-linejoin="round"/>
</svg>
