<svg width="28" height="28" viewBox="0 0 28 28" fill="none" xmlns="http://www.w3.org/2000/svg">
<path d="M13.9987 25.6666C20.442 25.6666 25.6654 20.4432 25.6654 13.9999C25.6654 7.5566 20.442 2.33325 13.9987 2.33325C7.55538 2.33325 2.33203 7.5566 2.33203 13.9999C2.33203 20.4432 7.55538 25.6666 13.9987 25.6666Z" stroke="#009FFF" stroke-width="2" stroke-linecap="round" stroke-linejoin="round"/>
<path d="M14 21C17.866 21 21 17.866 21 14C21 10.134 17.866 7 14 7C10.134 7 7 10.134 7 14C7 17.866 10.134 21 14 21Z" stroke="#009FFF" stroke-width="2" stroke-linecap="round" stroke-linejoin="round"/>
<path d="M14.0013 16.3334C15.29 16.3334 16.3346 15.2887 16.3346 14.0001C16.3346 12.7114 15.29 11.6667 14.0013 11.6667C12.7126 11.6667 11.668 12.7114 11.668 14.0001C11.668 15.2887 12.7126 16.3334 14.0013 16.3334Z" stroke="#009FFF" stroke-width="2" stroke-linecap="round" stroke-linejoin="round"/>
</svg>
