<svg width="28" height="28" viewBox="0 0 28 28" fill="none" xmlns="http://www.w3.org/2000/svg">
<path d="M18.0552 15.0383L19.8227 24.9853C19.8425 25.1025 19.8261 25.2228 19.7756 25.3304C19.7252 25.4379 19.6431 25.5275 19.5403 25.5871C19.4376 25.6467 19.3191 25.6735 19.2007 25.664C19.0823 25.6544 18.9696 25.609 18.8777 25.5337L14.7011 22.3988C14.4994 22.2482 14.2545 22.1668 14.0028 22.1668C13.7511 22.1668 13.5062 22.2482 13.3046 22.3988L9.1209 25.5325C9.02911 25.6077 8.91657 25.6531 8.79831 25.6626C8.68005 25.6722 8.56168 25.6455 8.45901 25.586C8.35633 25.5266 8.27422 25.4372 8.22364 25.3299C8.17306 25.2226 8.1564 25.1024 8.1759 24.9853L9.94223 15.0383" stroke="#009FFF" stroke-width="2" stroke-linecap="round" stroke-linejoin="round"/>
<path d="M14 16.3333C17.866 16.3333 21 13.1992 21 9.33325C21 5.46726 17.866 2.33325 14 2.33325C10.134 2.33325 7 5.46726 7 9.33325C7 13.1992 10.134 16.3333 14 16.3333Z" stroke="#009FFF" stroke-width="2" stroke-linecap="round" stroke-linejoin="round"/>
</svg>
