<svg width="28" height="28" viewBox="0 0 28 28" fill="none" xmlns="http://www.w3.org/2000/svg">
<path d="M18.6654 24.5V22.1667C18.6654 20.929 18.1737 19.742 17.2985 18.8668C16.4234 17.9917 15.2364 17.5 13.9987 17.5H6.9987C5.76102 17.5 4.57404 17.9917 3.69887 18.8668C2.8237 19.742 2.33203 20.929 2.33203 22.1667V24.5" stroke="#009FFF" stroke-width="2" stroke-linecap="round" stroke-linejoin="round"/>
<path d="M18.668 3.64941C19.6687 3.90885 20.5549 4.49322 21.1876 5.31082C21.8203 6.12842 22.1635 7.13295 22.1635 8.16675C22.1635 9.20054 21.8203 10.2051 21.1876 11.0227C20.5549 11.8403 19.6687 12.4246 18.668 12.6841" stroke="#009FFF" stroke-width="2" stroke-linecap="round" stroke-linejoin="round"/>
<path d="M25.668 24.4999V22.1666C25.6672 21.1326 25.3231 20.1282 24.6896 19.311C24.0561 18.4938 23.1691 17.9101 22.168 17.6516" stroke="#009FFF" stroke-width="2" stroke-linecap="round" stroke-linejoin="round"/>
<path d="M10.4987 12.8333C13.076 12.8333 15.1654 10.744 15.1654 8.16667C15.1654 5.58934 13.076 3.5 10.4987 3.5C7.92137 3.5 5.83203 5.58934 5.83203 8.16667C5.83203 10.744 7.92137 12.8333 10.4987 12.8333Z" stroke="#009FFF" stroke-width="2" stroke-linecap="round" stroke-linejoin="round"/>
</svg>
