<svg width="28" height="26" viewBox="0 0 28 26" fill="none" xmlns="http://www.w3.org/2000/svg">
<path d="M18.6654 23.3333V4.66659C18.6654 4.04775 18.4195 3.45425 17.9819 3.01667C17.5444 2.57908 16.9509 2.33325 16.332 2.33325H11.6654C11.0465 2.33325 10.453 2.57908 10.0154 3.01667C9.57786 3.45425 9.33203 4.04775 9.33203 4.66659V23.3333" stroke="#009FFF" stroke-width="2" stroke-linecap="round" stroke-linejoin="round"/>
<path d="M23.332 7H4.66536C3.3767 7 2.33203 8.04467 2.33203 9.33333V21C2.33203 22.2887 3.3767 23.3333 4.66536 23.3333H23.332C24.6207 23.3333 25.6654 22.2887 25.6654 21V9.33333C25.6654 8.04467 24.6207 7 23.332 7Z" stroke="#009FFF" stroke-width="2" stroke-linecap="round" stroke-linejoin="round"/>
</svg>
