<svg width="36" height="36" viewBox="0 0 36 36" fill="none" xmlns="http://www.w3.org/2000/svg">
<rect width="36" height="36" rx="18" fill="#22C55E" fill-opacity="0.2"/>
<path d="M24.6654 18.8333C24.6654 23 21.7487 25.0833 18.282 26.2916C18.1005 26.3531 17.9033 26.3502 17.7237 26.2833C14.2487 25.0833 11.332 23 11.332 18.8333V13C11.332 12.779 11.4198 12.567 11.5761 12.4107C11.7324 12.2544 11.9444 12.1666 12.1654 12.1666C13.832 12.1666 15.9154 11.1666 17.3654 9.89997C17.5419 9.74913 17.7665 9.66626 17.9987 9.66626C18.2309 9.66626 18.4555 9.74913 18.632 9.89997C20.0904 11.175 22.1654 12.1666 23.832 12.1666C24.053 12.1666 24.265 12.2544 24.4213 12.4107C24.5776 12.567 24.6654 12.779 24.6654 13V18.8333Z" stroke="#4ADE80" stroke-width="1.66667" stroke-linecap="round" stroke-linejoin="round"/>
<path d="M15.5 18L17.1667 19.6667L20.5 16.3334" stroke="#4ADE80" stroke-width="1.66667" stroke-linecap="round" stroke-linejoin="round"/>
</svg>
