<svg width="32" height="32" viewBox="0 0 32 32" fill="none" xmlns="http://www.w3.org/2000/svg">
<path d="M17.1073 2.90674C16.7599 2.74827 16.3825 2.66626 16.0006 2.66626C15.6188 2.66626 15.2414 2.74827 14.8939 2.90674L3.46727 8.10674C3.23067 8.21106 3.02951 8.38193 2.88829 8.59854C2.74706 8.81516 2.67188 9.06816 2.67188 9.32674C2.67188 9.58532 2.74706 9.83832 2.88829 10.0549C3.02951 10.2715 3.23067 10.4424 3.46727 10.5467L14.9073 15.7601C15.2547 15.9185 15.6321 16.0005 16.0139 16.0005C16.3958 16.0005 16.7732 15.9185 17.1206 15.7601L28.5606 10.5601C28.7972 10.4557 28.9984 10.2849 29.1396 10.0683C29.2808 9.85165 29.356 9.59865 29.356 9.34007C29.356 9.08149 29.2808 8.82849 29.1396 8.61188C28.9984 8.39527 28.7972 8.22439 28.5606 8.12007L17.1073 2.90674Z" stroke="white" stroke-width="2.66667" stroke-linecap="round" stroke-linejoin="round"/>
<path d="M2.66797 16C2.66734 16.255 2.73986 16.5049 2.87693 16.7199C3.014 16.935 3.20987 17.1062 3.44131 17.2133L14.908 22.4267C15.2536 22.5832 15.6286 22.6641 16.008 22.6641C16.3874 22.6641 16.7624 22.5832 17.108 22.4267L28.548 17.2267C28.784 17.1206 28.984 16.9481 29.1237 16.7303C29.2634 16.5125 29.3367 16.2587 29.3346 16" stroke="white" stroke-width="2.66667" stroke-linecap="round" stroke-linejoin="round"/>
<path d="M2.66797 22.6667C2.66734 22.9218 2.73986 23.1716 2.87693 23.3867C3.014 23.6017 3.20987 23.773 3.44131 23.8801L14.908 29.0934C15.2536 29.2499 15.6286 29.3309 16.008 29.3309C16.3874 29.3309 16.7624 29.2499 17.108 29.0934L28.548 23.8934C28.784 23.7873 28.984 23.6149 29.1237 23.3971C29.2634 23.1792 29.3367 22.9255 29.3346 22.6667" stroke="white" stroke-width="2.66667" stroke-linecap="round" stroke-linejoin="round"/>
</svg>
