<svg width="28" height="28" viewBox="0 0 28 28" fill="none" xmlns="http://www.w3.org/2000/svg">
<mask id="mask0_2784_1931" style="mask-type:alpha" maskUnits="userSpaceOnUse" x="0" y="0" width="28" height="28">
<rect width="28" height="28" fill="#D9D9D9"/>
</mask>
<g mask="url(#mask0_2784_1931)">
<path d="M12.8327 19.8918V8.40014C12.0355 7.93347 11.1896 7.58347 10.2952 7.35014C9.40074 7.11681 8.49657 7.00014 7.58268 7.00014C6.88268 7.00014 6.18754 7.0682 5.49727 7.20431C4.80699 7.34042 4.14102 7.54459 3.49935 7.81681V19.3668C4.1799 19.1335 4.8556 18.9585 5.52643 18.8418C6.19727 18.7251 6.88268 18.6668 7.58268 18.6668C8.49657 18.6668 9.38615 18.7689 10.2514 18.9731C11.1167 19.1772 11.9771 19.4835 12.8327 19.8918ZM1.16602 21.1751V7.11681C1.16602 6.90292 1.21949 6.69875 1.32643 6.50431C1.43338 6.30986 1.59379 6.16403 1.80768 6.06681C2.70213 5.60014 3.63546 5.25014 4.60768 5.01681C5.5799 4.78347 6.57157 4.66681 7.58268 4.66681C9.02157 4.66681 10.2466 4.83209 11.2577 5.16264C12.2688 5.4932 13.3577 5.99875 14.5243 6.67931C14.7382 6.79597 14.8987 6.93209 15.0056 7.08764C15.1125 7.2432 15.166 7.44736 15.166 7.70014V19.8918C16.0216 19.4835 16.882 19.1772 17.7473 18.9731C18.6125 18.7689 19.5021 18.6668 20.416 18.6668C21.116 18.6668 21.8014 18.7251 22.4723 18.8418C23.1431 18.9585 23.8188 19.1335 24.4993 19.3668V6.50431C24.4993 6.17375 24.6112 5.89667 24.8348 5.67306C25.0584 5.44945 25.3355 5.33764 25.666 5.33764C25.9966 5.33764 26.2737 5.44945 26.4973 5.67306C26.7209 5.89667 26.8327 6.17375 26.8327 6.50431V21.1751C26.8327 21.6224 26.6431 21.9626 26.2639 22.196C25.8848 22.4293 25.491 22.439 25.0827 22.2251C24.3632 21.8363 23.6098 21.5349 22.8223 21.321C22.0348 21.1071 21.2327 21.0001 20.416 21.0001C19.4632 21.0001 18.5348 21.1411 17.6306 21.4231C16.7264 21.705 15.866 22.0988 15.0493 22.6043C14.8938 22.7015 14.7237 22.7744 14.5389 22.8231C14.3542 22.8717 14.1743 22.896 13.9993 22.896C13.8243 22.896 13.6445 22.8717 13.4598 22.8231C13.275 22.7744 13.1049 22.7015 12.9493 22.6043C12.1327 22.0988 11.2723 21.705 10.3681 21.4231C9.46393 21.1411 8.53546 21.0001 7.58268 21.0001C6.76602 21.0001 5.96393 21.1071 5.17643 21.321C4.38893 21.5349 3.63546 21.8363 2.91602 22.2251C2.50768 22.439 2.11393 22.4293 1.73477 22.196C1.3556 21.9626 1.16602 21.6224 1.16602 21.1751ZM18.0827 15.1085V4.34597C18.0827 4.0932 18.1556 3.86472 18.3014 3.66056C18.4473 3.45639 18.6368 3.31542 18.8702 3.23764L20.4452 2.71264C20.7174 2.61542 20.975 2.65917 21.2181 2.84389C21.4612 3.02861 21.5827 3.26681 21.5827 3.55847V14.321C21.5827 14.5738 21.5098 14.8022 21.3639 15.0064C21.2181 15.2106 21.0285 15.3515 20.7952 15.4293L19.2202 15.9543C18.948 16.0515 18.6903 16.0078 18.4473 15.8231C18.2042 15.6383 18.0827 15.4001 18.0827 15.1085Z" fill="#009FFF"/>
</g>
</svg>
