<svg width="28" height="28" viewBox="0 0 28 28" fill="none" xmlns="http://www.w3.org/2000/svg">
<mask id="mask0_2784_1919" style="mask-type:alpha" maskUnits="userSpaceOnUse" x="0" y="0" width="28" height="28">
<rect width="28" height="28" fill="#D9D9D9"/>
</mask>
<g mask="url(#mask0_2784_1919)">
<path d="M12.776 14.8169L11.0844 13.1544C10.8705 12.9405 10.6031 12.8336 10.2823 12.8336C9.96146 12.8336 9.68437 12.9503 9.45104 13.1836C9.23715 13.3975 9.13021 13.6697 9.13021 14.0003C9.13021 14.3308 9.23715 14.603 9.45104 14.8169L11.9594 17.3253C12.1927 17.5586 12.4649 17.6753 12.776 17.6753C13.0872 17.6753 13.3594 17.5586 13.5927 17.3253L18.551 12.3669C18.7844 12.1336 18.8962 11.8614 18.8865 11.5503C18.8767 11.2391 18.7649 10.9669 18.551 10.7336C18.3177 10.5003 18.0406 10.3787 17.7198 10.369C17.399 10.3593 17.1219 10.4711 16.8885 10.7044L12.776 14.8169ZM9.50938 25.3753L7.81771 22.5169L4.60938 21.8169C4.31771 21.7586 4.08438 21.6079 3.90937 21.3648C3.73438 21.1218 3.66632 20.8544 3.70521 20.5628L4.02604 17.2669L1.83854 14.7586C1.6441 14.5447 1.54688 14.2919 1.54688 14.0003C1.54688 13.7086 1.6441 13.4558 1.83854 13.2419L4.02604 10.7336L3.70521 7.43776C3.66632 7.14609 3.73438 6.87873 3.90937 6.63568C4.08438 6.39262 4.31771 6.24193 4.60938 6.18359L7.81771 5.48359L9.50938 2.62526C9.66493 2.37248 9.87882 2.20234 10.151 2.11484C10.4233 2.02734 10.6955 2.04193 10.9677 2.15859L14.001 3.44193L17.0344 2.15859C17.3066 2.04193 17.5788 2.02734 17.851 2.11484C18.1233 2.20234 18.3372 2.37248 18.4927 2.62526L20.1844 5.48359L23.3927 6.18359C23.6844 6.24193 23.9177 6.39262 24.0927 6.63568C24.2677 6.87873 24.3358 7.14609 24.2969 7.43776L23.976 10.7336L26.1635 13.2419C26.358 13.4558 26.4552 13.7086 26.4552 14.0003C26.4552 14.2919 26.358 14.5447 26.1635 14.7586L23.976 17.2669L24.2969 20.5628C24.3358 20.8544 24.2677 21.1218 24.0927 21.3648C23.9177 21.6079 23.6844 21.7586 23.3927 21.8169L20.1844 22.5169L18.4927 25.3753C18.3372 25.628 18.1233 25.7982 17.851 25.8857C17.5788 25.9732 17.3066 25.9586 17.0344 25.8419L14.001 24.5586L10.9677 25.8419C10.6955 25.9586 10.4233 25.9732 10.151 25.8857C9.87882 25.7982 9.66493 25.628 9.50938 25.3753ZM11.026 23.2753L14.001 21.9919L17.0344 23.2753L18.6677 20.4753L21.876 19.7169L21.5844 16.4503L23.7427 14.0003L21.5844 11.4919L21.876 8.22526L18.6677 7.52526L16.976 4.72526L14.001 6.00859L10.9677 4.72526L9.33437 7.52526L6.12604 8.22526L6.41771 11.4919L4.25937 14.0003L6.41771 16.4503L6.12604 19.7753L9.33437 20.4753L11.026 23.2753Z" fill="#009FFF"/>
</g>
</svg>
