<svg width="28" height="28" viewBox="0 0 28 28" fill="none" xmlns="http://www.w3.org/2000/svg">
<mask id="mask0_2784_1967" style="mask-type:alpha" maskUnits="userSpaceOnUse" x="0" y="0" width="28" height="28">
<rect width="28" height="28" fill="#D9D9D9"/>
</mask>
<g mask="url(#mask0_2784_1967)">
<path d="M17.5007 22.1667V21H15.1673C14.5257 21 13.9763 20.7715 13.5194 20.3146C13.0625 19.8576 12.834 19.3083 12.834 18.6667V9.33333H10.5007V10.5C10.5007 11.1417 10.2722 11.691 9.81523 12.1479C9.35829 12.6049 8.80898 12.8333 8.16732 12.8333H4.66732C4.02565 12.8333 3.47635 12.6049 3.0194 12.1479C2.56246 11.691 2.33398 11.1417 2.33398 10.5V5.83333C2.33398 5.19167 2.56246 4.64236 3.0194 4.18542C3.47635 3.72847 4.02565 3.5 4.66732 3.5H8.16732C8.80898 3.5 9.35829 3.72847 9.81523 4.18542C10.2722 4.64236 10.5007 5.19167 10.5007 5.83333V7H17.5007V5.83333C17.5007 5.19167 17.7291 4.64236 18.1861 4.18542C18.643 3.72847 19.1923 3.5 19.834 3.5H23.334C23.9757 3.5 24.525 3.72847 24.9819 4.18542C25.4388 4.64236 25.6673 5.19167 25.6673 5.83333V10.5C25.6673 11.1417 25.4388 11.691 24.9819 12.1479C24.525 12.6049 23.9757 12.8333 23.334 12.8333H19.834C19.1923 12.8333 18.643 12.6049 18.1861 12.1479C17.7291 11.691 17.5007 11.1417 17.5007 10.5V9.33333H15.1673V18.6667H17.5007V17.5C17.5007 16.8583 17.7291 16.309 18.1861 15.8521C18.643 15.3951 19.1923 15.1667 19.834 15.1667H23.334C23.9757 15.1667 24.525 15.3951 24.9819 15.8521C25.4388 16.309 25.6673 16.8583 25.6673 17.5V22.1667C25.6673 22.8083 25.4388 23.3576 24.9819 23.8146C24.525 24.2715 23.9757 24.5 23.334 24.5H19.834C19.1923 24.5 18.643 24.2715 18.1861 23.8146C17.7291 23.3576 17.5007 22.8083 17.5007 22.1667ZM19.834 10.5H23.334V5.83333H19.834V10.5ZM19.834 22.1667H23.334V17.5H19.834V22.1667ZM4.66732 10.5H8.16732V5.83333H4.66732V10.5Z" fill="#009FFF"/>
</g>
</svg>
