<svg width="28" height="28" viewBox="0 0 28 28" fill="none" xmlns="http://www.w3.org/2000/svg">
<mask id="mask0_2784_1949" style="mask-type:alpha" maskUnits="userSpaceOnUse" x="0" y="0" width="28" height="28">
<rect width="28" height="28" fill="#D9D9D9"/>
</mask>
<g mask="url(#mask0_2784_1949)">
<path d="M1.16602 20.0667C1.16602 19.4056 1.33615 18.798 1.67643 18.2438C2.01671 17.6897 2.46879 17.2667 3.03268 16.9751C4.23824 16.3723 5.46324 15.9202 6.70768 15.6188C7.95213 15.3174 9.21601 15.1667 10.4993 15.1667C11.7827 15.1667 13.0466 15.3174 14.291 15.6188C15.5355 15.9202 16.7605 16.3723 17.966 16.9751C18.5299 17.2667 18.982 17.6897 19.3223 18.2438C19.6625 18.798 19.8327 19.4056 19.8327 20.0667V21.0001C19.8327 21.6417 19.6042 22.1911 19.1473 22.648C18.6903 23.1049 18.141 23.3334 17.4993 23.3334H3.49935C2.85768 23.3334 2.30838 23.1049 1.85143 22.648C1.39449 22.1911 1.16602 21.6417 1.16602 21.0001V20.0667ZM24.4993 23.3334H21.5243C21.7382 22.9834 21.8987 22.6091 22.0056 22.2105C22.1125 21.8119 22.166 21.4084 22.166 21.0001V19.8334C22.166 18.9779 21.9278 18.1563 21.4514 17.3688C20.975 16.5813 20.2993 15.9056 19.4243 15.3417C20.416 15.4584 21.3493 15.6577 22.2243 15.9397C23.0993 16.2216 23.916 16.5667 24.6743 16.9751C25.3743 17.364 25.9091 17.7966 26.2785 18.273C26.648 18.7494 26.8327 19.2695 26.8327 19.8334V21.0001C26.8327 21.6417 26.6042 22.1911 26.1473 22.648C25.6903 23.1049 25.141 23.3334 24.4993 23.3334ZM10.4993 14.0001C9.21601 14.0001 8.1174 13.5431 7.20352 12.6292C6.28963 11.7154 5.83268 10.6167 5.83268 9.33341C5.83268 8.05008 6.28963 6.95147 7.20352 6.03758C8.1174 5.12369 9.21601 4.66675 10.4993 4.66675C11.7827 4.66675 12.8813 5.12369 13.7952 6.03758C14.7091 6.95147 15.166 8.05008 15.166 9.33341C15.166 10.6167 14.7091 11.7154 13.7952 12.6292C12.8813 13.5431 11.7827 14.0001 10.4993 14.0001ZM22.166 9.33341C22.166 10.6167 21.7091 11.7154 20.7952 12.6292C19.8813 13.5431 18.7827 14.0001 17.4993 14.0001C17.2855 14.0001 17.0132 13.9758 16.6827 13.9272C16.3521 13.8786 16.0799 13.8251 15.866 13.7667C16.391 13.1445 16.7945 12.4542 17.0764 11.6959C17.3584 10.9376 17.4993 10.1501 17.4993 9.33341C17.4993 8.51675 17.3584 7.72925 17.0764 6.97091C16.7945 6.21258 16.391 5.5223 15.866 4.90008C16.1382 4.80286 16.4105 4.73966 16.6827 4.7105C16.9549 4.68133 17.2271 4.66675 17.4993 4.66675C18.7827 4.66675 19.8813 5.12369 20.7952 6.03758C21.7091 6.95147 22.166 8.05008 22.166 9.33341ZM3.49935 21.0001H17.4993V20.0667C17.4993 19.8529 17.4459 19.6584 17.3389 19.4834C17.232 19.3084 17.091 19.1723 16.916 19.0751C15.866 18.5501 14.8063 18.1563 13.7368 17.8938C12.6674 17.6313 11.5882 17.5001 10.4993 17.5001C9.41046 17.5001 8.33129 17.6313 7.26185 17.8938C6.1924 18.1563 5.13268 18.5501 4.08268 19.0751C3.90768 19.1723 3.76671 19.3084 3.65977 19.4834C3.55282 19.6584 3.49935 19.8529 3.49935 20.0667V21.0001ZM10.4993 11.6667C11.141 11.6667 11.6903 11.4383 12.1473 10.9813C12.6042 10.5244 12.8327 9.97508 12.8327 9.33341C12.8327 8.69175 12.6042 8.14244 12.1473 7.6855C11.6903 7.22855 11.141 7.00008 10.4993 7.00008C9.85768 7.00008 9.30838 7.22855 8.85143 7.6855C8.39449 8.14244 8.16602 8.69175 8.16602 9.33341C8.16602 9.97508 8.39449 10.5244 8.85143 10.9813C9.30838 11.4383 9.85768 11.6667 10.4993 11.6667Z" fill="#009FFF"/>
</g>
</svg>
