<svg width="44" height="39" viewBox="0 0 44 39" fill="none" xmlns="http://www.w3.org/2000/svg">
<path d="M2 13.0323C2.00004 10.8067 2.67519 8.63347 3.93627 6.79963C5.19735 4.9658 6.98503 3.55762 9.06322 2.76111C11.1414 1.96459 13.4123 1.8172 15.576 2.3384C17.7397 2.85959 19.6945 4.02487 21.182 5.68031C21.2868 5.79233 21.4134 5.88165 21.5542 5.94271C21.6949 6.00377 21.8466 6.03527 22 6.03527C22.1534 6.03527 22.3051 6.00377 22.4458 5.94271C22.5866 5.88165 22.7132 5.79233 22.818 5.68031C24.3009 4.01411 26.256 2.83904 28.4233 2.31151C30.5905 1.78398 32.867 1.929 34.9497 2.72727C37.0325 3.52555 38.8228 4.93921 40.0822 6.78011C41.3417 8.62101 42.0106 10.8018 42 13.0323C42 17.6123 39 21.0323 36 24.0323L25.016 34.6583C24.6433 35.0863 24.1839 35.4301 23.6681 35.6669C23.1523 35.9037 22.5921 36.028 22.0246 36.0316C21.4571 36.0352 20.8953 35.918 20.3766 35.6878C19.8579 35.4575 19.3941 35.1196 19.016 34.6963L8 24.0323C5 21.0323 2 17.6323 2 13.0323Z" fill="#009FFF" stroke="#009FFF" stroke-width="4" stroke-linecap="round" stroke-linejoin="round"/>
</svg>
